<svg xmlns="http://www.w3.org/2000/svg" xmlns:xlink="http://www.w3.org/1999/xlink" viewBox="462 -15 375 667">
  <defs>
    <style>
      .cls-1 {
        clip-path: url(#clip-Create_Study_1);
      }

      .cls-14, .cls-2, .cls-4 {
        fill: #fff;
      }

      .cls-11, .cls-2 {
        stroke: #95989a;
      }

      .cls-3 {
        fill: #929292;
      }

      .cls-10, .cls-3, .cls-4, .cls-6, .cls-8 {
        stroke: #000;
      }

      .cls-5 {
        font-size: 20px;
      }

      .cls-5, .cls-7, .cls-9 {
        font-family: SegoeUI, Segoe UI;
      }

      .cls-10, .cls-11, .cls-13, .cls-6 {
        fill: none;
      }

      .cls-7, .cls-9 {
        font-size: 18px;
      }

      .cls-8 {
        fill: rgba(0,0,0,0);
      }

      .cls-9 {
        letter-spacing: 0.01em;
      }

      .cls-10 {
        stroke-width: 2px;
      }

      .cls-12 {
        stroke: none;
      }

      .cls-15 {
        filter: url(#Rectangle_68);
      }

      .cls-16 {
        filter: url(#Rectangle_65);
      }

      .cls-17 {
        filter: url(#Rectangle_63);
      }
    </style>
    <filter id="Rectangle_63" x="452" y="572" width="393" height="84" filterUnits="userSpaceOnUse">
      <feOffset dy="-4" input="SourceAlpha"/>
      <feGaussianBlur stdDeviation="3" result="blur"/>
      <feFlood flood-opacity="0.161"/>
      <feComposite operator="in" in2="blur"/>
      <feComposite in="SourceGraphic"/>
    </filter>
    <filter id="Rectangle_65" x="644" y="575" width="111.5" height="27" filterUnits="userSpaceOnUse">
      <feOffset dx="4" input="SourceAlpha"/>
      <feGaussianBlur stdDeviation="3" result="blur-2"/>
      <feFlood flood-opacity="0.161"/>
      <feComposite operator="in" in2="blur-2"/>
      <feComposite in="SourceGraphic"/>
    </filter>
    <filter id="Rectangle_68" x="644" y="584" width="111.5" height="76" filterUnits="userSpaceOnUse">
      <feOffset dx="4" input="SourceAlpha"/>
      <feGaussianBlur stdDeviation="3" result="blur-3"/>
      <feFlood flood-opacity="0.161"/>
      <feComposite operator="in" in2="blur-3"/>
      <feComposite in="SourceGraphic"/>
    </filter>
    <clipPath id="clip-Create_Study_1">
      <rect x="462" y="-15" width="375" height="667"/>
    </clipPath>
  </defs>
  <g id="Create_Study_1" data-name="Create Study 1" class="cls-1">
    <rect class="cls-14" x="462" y="-15" width="375" height="667"/>
    <g id="Rectangle_104" data-name="Rectangle 104" class="cls-2" transform="translate(462 -15)">
      <rect class="cls-12" width="375" height="667"/>
      <rect class="cls-13" x="0.5" y="0.5" width="374" height="666"/>
    </g>
    <g class="cls-17" transform="matrix(1, 0, 0, 1, 0, 0)">
      <g id="Rectangle_63-2" data-name="Rectangle 63" class="cls-2" transform="translate(461 585)">
        <rect class="cls-12" width="375" height="66"/>
        <rect class="cls-13" x="0.5" y="0.5" width="374" height="65"/>
      </g>
    </g>
    <g id="Rectangle_64" data-name="Rectangle 64" class="cls-3" transform="translate(743 584)">
      <rect class="cls-12" width="93.5" height="9"/>
      <rect class="cls-13" x="0.5" y="0.5" width="92.5" height="8"/>
    </g>
    <g id="Rectangle_66" data-name="Rectangle 66" class="cls-4" transform="translate(555 584)">
      <rect class="cls-12" width="93.5" height="9"/>
      <rect class="cls-13" x="0.5" y="0.5" width="92.5" height="8"/>
    </g>
    <g id="Rectangle_67" data-name="Rectangle 67" class="cls-4" transform="translate(555 593)">
      <rect class="cls-12" width="93.5" height="58"/>
      <rect class="cls-13" x="0.5" y="0.5" width="92.5" height="57"/>
    </g>
    <g id="Rectangle_69" data-name="Rectangle 69" class="cls-4" transform="translate(743 593)">
      <rect class="cls-12" width="93.5" height="58"/>
      <rect class="cls-13" x="0.5" y="0.5" width="92.5" height="57"/>
    </g>
    <path id="Path_20" data-name="Path 20" d="M78.888,19.227a10.442,10.442,0,1,0-11.265,0A13.387,13.387,0,0,0,55.455,32.541V43.38l.027.169.747.233a60.88,60.88,0,0,0,18.179,2.932c9.826,0,15.522-2.8,15.875-2.981l.7-.354h.073V32.541A13.386,13.386,0,0,0,78.888,19.227Z" transform="translate(716.545 599)"/>
    <path id="Path_21" data-name="Path 21" d="M32.587,14.148a9.812,9.812,0,0,1,4.566,7.29,7.916,7.916,0,1,0-4.566-7.29ZM27.4,30.363a7.919,7.919,0,1,0-7.921-7.919A7.92,7.92,0,0,0,27.4,30.363Zm3.359.54h-6.72A10.152,10.152,0,0,0,13.9,41.044v8.218l.021.129.566.177a46.158,46.158,0,0,0,13.787,2.223c7.453,0,11.772-2.125,12.039-2.26l.529-.268H40.9v-8.22A10.149,10.149,0,0,0,30.758,30.9Zm13.1-8.176H37.192a9.76,9.76,0,0,1-3.012,6.8,12.049,12.049,0,0,1,8.606,11.531v2.533a27.288,27.288,0,0,0,10.628-2.233l.529-.268H54V32.867A10.151,10.151,0,0,0,43.86,22.727ZM13.5,22.188a7.867,7.867,0,0,0,4.212-1.222A9.8,9.8,0,0,1,21.4,14.715c.008-.148.022-.3.022-.445A7.919,7.919,0,1,0,13.5,22.188Zm7.112,7.337a9.766,9.766,0,0,1-3.01-6.761c-.247-.018-.492-.038-.744-.038H10.14A10.152,10.152,0,0,0,0,32.867v8.22l.021.127.566.179a47.543,47.543,0,0,0,11.419,2.146V41.056A12.052,12.052,0,0,1,20.614,29.526Z" transform="translate(575 592.652)"/>
    <path id="Path_22" data-name="Path 22" class="cls-4" d="M.5.5H93v8H.5Z" transform="translate(461 584)"/>
    <g id="Rectangle_70" data-name="Rectangle 70" class="cls-4" transform="translate(461 593)">
      <rect class="cls-12" width="93.5" height="58"/>
      <rect class="cls-13" x="0.5" y="0.5" width="92.5" height="57"/>
    </g>
    <g id="Group_51" data-name="Group 51" transform="translate(461 -17)">
      <path id="Path_3" data-name="Path 3" d="M23.25,0A23.25,23.25,0,1,0,46.5,23.25,23.276,23.276,0,0,0,23.25,0Zm0,44.95a21.7,21.7,0,1,1,21.7-21.7A21.725,21.725,0,0,1,23.25,44.95Z" transform="translate(24 615)"/>
      <path id="Path_4" data-name="Path 4" d="M28.075,23.514v-7.86a.775.775,0,0,0-1.55,0v7.86a3.1,3.1,0,0,0-2.215,2.215H18.775a.775.775,0,0,0,0,1.55H24.31a3.093,3.093,0,1,0,3.765-3.765Zm-.775,4.54a1.55,1.55,0,1,1,1.55-1.55A1.552,1.552,0,0,1,27.3,28.054Z" transform="translate(19.95 611.652)"/>
      <path id="Path_5" data-name="Path 5" d="M29.775,9.2a.775.775,0,0,0,.775-.775V7.654a.775.775,0,0,0-1.55,0v.775A.775.775,0,0,0,29.775,9.2Z" transform="translate(17.475 613.452)"/>
      <path id="Path_6" data-name="Path 6" d="M29.775,49.879a.775.775,0,0,0-.775.775v.775a.775.775,0,0,0,1.55,0v-.775A.775.775,0,0,0,29.775,49.879Z" transform="translate(17.475 604.777)"/>
      <path id="Path_7" data-name="Path 7" d="M51.55,28.879h-.775a.775.775,0,0,0,0,1.55h.775a.775.775,0,0,0,0-1.55Z" transform="translate(12.75 608.502)"/>
      <path id="Path_8" data-name="Path 8" d="M8.55,28.879H7.775a.775.775,0,0,0,0,1.55H8.55a.775.775,0,0,0,0-1.55Z" transform="translate(22.425 608.502)"/>
      <path id="Path_9" data-name="Path 9" d="M44.624,13.549l-.548.548a.775.775,0,1,0,1.1,1.1l.548-.548a.775.775,0,0,0-1.1-1.1Z" transform="translate(14.134 612.003)"/>
      <path id="Path_10" data-name="Path 10" d="M14.219,43.955l-.548.548a.775.775,0,1,0,1.1,1.1l.548-.548a.775.775,0,0,0-1.1-1.1Z" transform="translate(20.975 605.161)"/>
      <path id="Path_11" data-name="Path 11" d="M45.172,43.955a.775.775,0,0,0-1.1,1.1l.548.548a.775.775,0,0,0,1.1-1.1Z" transform="translate(14.134 605.161)"/>
      <path id="Path_12" data-name="Path 12" d="M14.767,13.549a.775.775,0,0,0-1.1,1.1l.548.548a.775.775,0,1,0,1.1-1.1Z" transform="translate(20.975 612.003)"/>
    </g>
    <g class="cls-16" transform="matrix(1, 0, 0, 1, 0, 0)">
      <g id="Rectangle_65-2" data-name="Rectangle 65" class="cls-4" transform="translate(649 584)">
        <rect class="cls-12" width="93.5" height="9"/>
        <rect class="cls-13" x="0.5" y="0.5" width="92.5" height="8"/>
      </g>
    </g>
    <g class="cls-15" transform="matrix(1, 0, 0, 1, 0, 0)">
      <g id="Rectangle_68-2" data-name="Rectangle 68" class="cls-4" transform="translate(649 593)">
        <rect class="cls-12" width="93.5" height="58"/>
        <rect class="cls-13" x="0.5" y="0.5" width="92.5" height="57"/>
      </g>
    </g>
    <g id="Group_50" data-name="Group 50" transform="translate(676.72 600)">
      <path id="Path_15" data-name="Path 15" d="M25.013,39.119a2.527,2.527,0,0,1-1.389.975l-2.79.762a2.5,2.5,0,0,1-3.165-2.192l-.245-2.881a2.468,2.468,0,0,1,.437-1.659l.1-.148H8.012a1.465,1.465,0,0,1,0-2.929H20.058L22.75,27.2H8.012a1.465,1.465,0,0,1,0-2.93l16.811-.043,6.3-9.039V8.5a1.954,1.954,0,0,0-1.948-1.988H24.353v3.819a3.244,3.244,0,0,1-3.274,3.229H11.373a3.2,3.2,0,0,1-3.227-3.229V6.509H3.268A1.987,1.987,0,0,0,1.28,8.5V42.65a2.029,2.029,0,0,0,1.988,2.037H29.177a2,2,0,0,0,1.949-2.037V30.438ZM8.012,17.5H24.436a1.465,1.465,0,0,1,0,2.929H8.012a1.465,1.465,0,0,1,0-2.929Z"/>
      <path id="Path_16" data-name="Path 16" d="M11.4,11.636h9.7A1.332,1.332,0,0,0,22.428,10.3V4.727A1.332,1.332,0,0,0,21.1,3.4H19.636a3.413,3.413,0,0,0-6.826,0H11.4a1.331,1.331,0,0,0-1.331,1.332V10.3A1.332,1.332,0,0,0,11.4,11.636Zm4.824-9.745a1.521,1.521,0,0,1,1.521,1.5H14.7A1.524,1.524,0,0,1,16.224,1.891Z"/>
      <path id="Path_17" data-name="Path 17" d="M43.394,8.978A.948.948,0,0,0,43,8.369L40.574,6.677a.94.94,0,0,0-1.311.233l-17.2,24.663,3.973,2.771,17.2-24.662A.95.95,0,0,0,43.394,8.978Z"/>
      <path id="Path_18" data-name="Path 18" d="M19.355,35.6l.249,2.9a.556.556,0,0,0,.236.412.573.573,0,0,0,.321.1.528.528,0,0,0,.147-.021l2.805-.768a.57.57,0,0,0,.313-.22l1.053-1.51L20.5,33.721l-1.053,1.51A.548.548,0,0,0,19.355,35.6Z"/>
    </g>
    <text id="CREATE_STUDY" data-name="CREATE STUDY" class="cls-5" transform="translate(584 28)"><tspan x="0" y="0">CREATE STUDY</tspan></text>
    <g id="Group_52" data-name="Group 52" transform="translate(731 -232)">
      <g id="alarm" transform="translate(71 238)">
        <path id="Path_1" data-name="Path 1" d="M24.295,19.763a9.754,9.754,0,0,1-3.064-7.109V8.73a6.349,6.349,0,0,0-3.722-5.767,8.772,8.772,0,0,0-1.525-.531v-.25a2.182,2.182,0,0,0-4.364,0V2.47a8.64,8.64,0,0,0-1.373.5,6.6,6.6,0,0,0-3.864,5.76v3.927a9.682,9.682,0,0,1-2.926,7.109.436.436,0,0,0,.233.74l4.142.715c.771.133,1.482.242,2.158.332a4.314,4.314,0,0,0,7.782,0c.673-.089,1.38-.2,2.147-.331l4.141-.715a.436.436,0,0,0,.234-.739ZM12.493,2.182a1.309,1.309,0,0,1,2.618,0v.079a8.676,8.676,0,0,0-2.618.021Zm1.389,20.945a3.5,3.5,0,0,1-2.8-1.447,27.026,27.026,0,0,0,2.8.151,26.878,26.878,0,0,0,2.806-.152A3.5,3.5,0,0,1,13.882,23.127Zm5.89-2.77c-.837.144-1.6.262-2.33.354h0c-.319.041-.63.076-.934.106h-.01c-.278.028-.55.05-.819.07l-.153.01c-.233.015-.463.027-.693.036l-.141.006c-.543.018-1.078.018-1.621,0l-.145-.006q-.339-.013-.684-.036l-.163-.011c-.262-.019-.527-.041-.8-.068l-.028,0c-.3-.03-.61-.065-.928-.106h0c-.728-.092-1.5-.21-2.339-.355L4.638,19.78a10.5,10.5,0,0,0,2.618-7.126V8.73a5.713,5.713,0,0,1,3.356-4.971,7.8,7.8,0,0,1,1.526-.516h.014a7.933,7.933,0,0,1,3.308-.03c.006,0,.011,0,.017,0a7.892,7.892,0,0,1,1.669.545,5.539,5.539,0,0,1,3.212,4.971v3.927a10.618,10.618,0,0,0,2.755,7.126Z" transform="translate(-3.329)"/>
        <path id="Path_2" data-name="Path 2" d="M23.365,10.589a6.668,6.668,0,0,0-5.441,0,4.41,4.41,0,0,0-2.6,3.776.437.437,0,0,0,.434.439h0a.436.436,0,0,0,.436-.434,3.52,3.52,0,0,1,2.088-2.989,5.776,5.776,0,0,1,4.712,0,.436.436,0,1,0,.363-.793Z" transform="translate(-10.093 -5.642)"/>
      </g>
    </g>
    <line id="Line_31" data-name="Line 31" class="cls-6" x2="375" transform="translate(462.5 57.5)"/>
    <text id="Name_of_Study" data-name="Name of Study" class="cls-7" transform="translate(485 83)"><tspan x="0" y="0">Name of Study</tspan></text>
    <g id="Rectangle_71" data-name="Rectangle 71" class="cls-4" transform="translate(485 101)">
      <rect class="cls-12" width="328" height="34"/>
      <rect class="cls-13" x="0.5" y="0.5" width="327" height="33"/>
    </g>
    <text id="Brush_Off" data-name="Brush Off" class="cls-5" transform="translate(499 127)"><tspan x="0" y="0">Brush Off</tspan></text>
    <g id="Group_54" data-name="Group 54" transform="translate(462 -15)">
      <g id="Rectangle_72" data-name="Rectangle 72" class="cls-4" transform="translate(24 212)">
        <rect class="cls-12" width="144" height="34"/>
        <rect class="cls-13" x="0.5" y="0.5" width="143" height="33"/>
      </g>
      <g id="Rectangle_73" data-name="Rectangle 73" class="cls-4" transform="translate(134 212)">
        <rect class="cls-12" width="34" height="34"/>
        <rect class="cls-13" x="0.5" y="0.5" width="33" height="33"/>
      </g>
      <path id="Path_23" data-name="Path 23" class="cls-8" d="M.1,0V33" transform="translate(143.4 212.5)"/>
      <line id="Line_33" data-name="Line 33" class="cls-6" y2="33" transform="translate(151.5 212.5)"/>
      <line id="Line_34" data-name="Line 34" class="cls-6" y2="33" transform="translate(159.5 212.5)"/>
      <line id="Line_35" data-name="Line 35" class="cls-6" x2="33" transform="translate(134.5 220.5)"/>
      <line id="Line_36" data-name="Line 36" class="cls-6" x2="33" transform="translate(134.5 229.5)"/>
      <line id="Line_37" data-name="Line 37" class="cls-6" x2="33" transform="translate(134.5 238.5)"/>
    </g>
    <text id="Start_Date" data-name="Start Date" class="cls-7" transform="translate(486 179)"><tspan x="0" y="0">Start Date</tspan></text>
    <g id="Group_53" data-name="Group 53" transform="translate(462 -15)">
      <g id="Rectangle_74" data-name="Rectangle 74" class="cls-4" transform="translate(208 212)">
        <rect class="cls-12" width="144" height="34"/>
        <rect class="cls-13" x="0.5" y="0.5" width="143" height="33"/>
      </g>
      <g id="Rectangle_75" data-name="Rectangle 75" class="cls-4" transform="translate(318 212)">
        <rect class="cls-12" width="34" height="34"/>
        <rect class="cls-13" x="0.5" y="0.5" width="33" height="33"/>
      </g>
      <path id="Path_24" data-name="Path 24" class="cls-8" d="M.1,0V33" transform="translate(327.4 212.5)"/>
      <line id="Line_38" data-name="Line 38" class="cls-6" y2="33" transform="translate(335.5 212.5)"/>
      <line id="Line_39" data-name="Line 39" class="cls-6" y2="33" transform="translate(343.5 212.5)"/>
      <line id="Line_40" data-name="Line 40" class="cls-6" x2="33" transform="translate(318.5 220.5)"/>
      <line id="Line_41" data-name="Line 41" class="cls-6" x2="33" transform="translate(318.5 229.5)"/>
      <line id="Line_42" data-name="Line 42" class="cls-6" x2="33" transform="translate(318.5 238.5)"/>
    </g>
    <text id="End_Date" data-name="End Date" class="cls-7" transform="translate(670 179)"><tspan x="0" y="0">End Date</tspan></text>
    <text id="_04_21" data-name="04 / 21" class="cls-9" transform="translate(512 222)"><tspan x="0" y="0">04 / 21</tspan></text>
    <text id="_04_30" data-name="04 / 30" class="cls-9" transform="translate(699 222)"><tspan x="0" y="0">04 / 30</tspan></text>
    <g id="Group_55" data-name="Group 55" transform="translate(462 90)">
      <g id="Rectangle_72-2" data-name="Rectangle 72" class="cls-4" transform="translate(24 212)">
        <rect class="cls-12" width="144" height="34"/>
        <rect class="cls-13" x="0.5" y="0.5" width="143" height="33"/>
      </g>
      <g id="Rectangle_73-2" data-name="Rectangle 73" class="cls-4" transform="translate(134 212)">
        <rect class="cls-12" width="34" height="34"/>
        <rect class="cls-13" x="0.5" y="0.5" width="33" height="33"/>
      </g>
      <path id="Path_23-2" data-name="Path 23" class="cls-8" d="M.1,0V33" transform="translate(143.4 212.5)"/>
      <line id="Line_33-2" data-name="Line 33" class="cls-6" y2="33" transform="translate(151.5 212.5)"/>
      <line id="Line_34-2" data-name="Line 34" class="cls-6" y2="33" transform="translate(159.5 212.5)"/>
      <line id="Line_35-2" data-name="Line 35" class="cls-6" x2="33" transform="translate(134.5 220.5)"/>
      <line id="Line_36-2" data-name="Line 36" class="cls-6" x2="33" transform="translate(134.5 229.5)"/>
      <line id="Line_37-2" data-name="Line 37" class="cls-6" x2="33" transform="translate(134.5 238.5)"/>
    </g>
    <g id="Group_56" data-name="Group 56" transform="translate(462 90)">
      <g id="Rectangle_74-2" data-name="Rectangle 74" class="cls-4" transform="translate(208 212)">
        <rect class="cls-12" width="144" height="34"/>
        <rect class="cls-13" x="0.5" y="0.5" width="143" height="33"/>
      </g>
      <g id="Rectangle_75-2" data-name="Rectangle 75" class="cls-4" transform="translate(318 212)">
        <rect class="cls-12" width="34" height="34"/>
        <rect class="cls-13" x="0.5" y="0.5" width="33" height="33"/>
      </g>
      <path id="Path_24-2" data-name="Path 24" class="cls-8" d="M.1,0V33" transform="translate(327.4 212.5)"/>
      <line id="Line_38-2" data-name="Line 38" class="cls-6" y2="33" transform="translate(335.5 212.5)"/>
      <line id="Line_39-2" data-name="Line 39" class="cls-6" y2="33" transform="translate(343.5 212.5)"/>
      <line id="Line_40-2" data-name="Line 40" class="cls-6" x2="33" transform="translate(318.5 220.5)"/>
      <line id="Line_41-2" data-name="Line 41" class="cls-6" x2="33" transform="translate(318.5 229.5)"/>
      <line id="Line_42-2" data-name="Line 42" class="cls-6" x2="33" transform="translate(318.5 238.5)"/>
    </g>
    <text id="_04_21-2" data-name="04 / 21" class="cls-9" transform="translate(512 327)"><tspan x="0" y="0">04 / 21</tspan></text>
    <text id="_04_30-2" data-name="04 / 30" class="cls-9" transform="translate(699 327)"><tspan x="0" y="0">04 / 30</tspan></text>
    <text id="Compensation" class="cls-7" transform="translate(485 286)"><tspan x="0" y="0">Compensation</tspan></text>
    <text id="Time_Required" data-name="Time Required" class="cls-7" transform="translate(670 286)"><tspan x="0" y="0">Time Required</tspan></text>
    <text id="Select_Flyer_Template" data-name="Select Flyer Template" class="cls-7" transform="translate(485 380)"><tspan x="0" y="0">Select Flyer Template</tspan></text>
    <g id="Rectangle_76" data-name="Rectangle 76" class="cls-4" transform="translate(486 414)">
      <rect class="cls-12" width="104" height="144"/>
      <rect class="cls-13" x="0.5" y="0.5" width="103" height="143"/>
    </g>
    <g id="Rectangle_77" data-name="Rectangle 77" class="cls-4" transform="translate(565 415)">
      <rect class="cls-12" width="25" height="24"/>
      <rect class="cls-13" x="0.5" y="0.5" width="24" height="23"/>
    </g>
    <g id="Rectangle_78" data-name="Rectangle 78" class="cls-4" transform="translate(602 415)">
      <rect class="cls-12" width="104" height="144"/>
      <rect class="cls-13" x="0.5" y="0.5" width="103" height="143"/>
    </g>
    <g id="Rectangle_79" data-name="Rectangle 79" class="cls-4" transform="translate(718 415)">
      <rect class="cls-12" width="104" height="144"/>
      <rect class="cls-13" x="0.5" y="0.5" width="103" height="143"/>
    </g>
    <line id="Line_43" data-name="Line 43" class="cls-10" x2="6" y2="7" transform="translate(570.5 427.5)"/>
    <line id="Line_44" data-name="Line 44" class="cls-10" y1="12" x2="11" transform="translate(576.5 422.5)"/>
    <g id="Rectangle_80" data-name="Rectangle 80" class="cls-2" transform="translate(499 508)">
      <rect class="cls-12" width="79" height="33"/>
      <rect class="cls-13" x="0.5" y="0.5" width="78" height="32"/>
    </g>
    <g id="Rectangle_81" data-name="Rectangle 81" class="cls-2" transform="translate(505 446)">
      <rect class="cls-12" width="68" height="1"/>
      <rect class="cls-13" x="0.5" y="0.5" width="67"/>
    </g>
    <g id="Rectangle_82" data-name="Rectangle 82" class="cls-2" transform="translate(505 453)">
      <rect class="cls-12" width="68" height="1"/>
      <rect class="cls-13" x="0.5" y="0.5" width="67"/>
    </g>
    <g id="Rectangle_83" data-name="Rectangle 83" class="cls-2" transform="translate(505 460)">
      <rect class="cls-12" width="68" height="1"/>
      <rect class="cls-13" x="0.5" y="0.5" width="67"/>
    </g>
    <g id="Rectangle_84" data-name="Rectangle 84" class="cls-2" transform="translate(505 467)">
      <rect class="cls-12" width="68" height="1"/>
      <rect class="cls-13" x="0.5" y="0.5" width="67"/>
    </g>
    <g id="Rectangle_85" data-name="Rectangle 85" class="cls-2" transform="translate(505 480)">
      <rect class="cls-12" width="68" height="1"/>
      <rect class="cls-13" x="0.5" y="0.5" width="67"/>
    </g>
    <g id="Rectangle_86" data-name="Rectangle 86" class="cls-2" transform="translate(505 487)">
      <rect class="cls-12" width="68" height="1"/>
      <rect class="cls-13" x="0.5" y="0.5" width="67"/>
    </g>
    <line id="Line_45" data-name="Line 45" class="cls-11" x2="78" y2="32" transform="translate(499.5 508.5)"/>
    <line id="Line_46" data-name="Line 46" class="cls-11" y1="32" x2="78" transform="translate(499.5 508.5)"/>
    <g id="Rectangle_87" data-name="Rectangle 87" class="cls-2" transform="translate(732 518)">
      <rect class="cls-12" width="33.9" height="1.387"/>
      <rect class="cls-13" x="0.5" y="0.5" width="32.9" height="0.387"/>
    </g>
    <g id="Rectangle_88" data-name="Rectangle 88" class="cls-2" transform="translate(732 526.712)">
      <rect class="cls-12" width="33.9" height="1.387"/>
      <rect class="cls-13" x="0.5" y="0.5" width="32.9" height="0.387"/>
    </g>
    <g id="Rectangle_89" data-name="Rectangle 89" class="cls-2" transform="translate(620 481)">
      <rect class="cls-12" width="68" height="1"/>
      <rect class="cls-13" x="0.5" y="0.5" width="67"/>
    </g>
    <g id="Rectangle_90" data-name="Rectangle 90" class="cls-2" transform="translate(620 488)">
      <rect class="cls-12" width="68" height="1"/>
      <rect class="cls-13" x="0.5" y="0.5" width="67"/>
    </g>
    <g id="Rectangle_91" data-name="Rectangle 91" class="cls-2" transform="translate(620 495)">
      <rect class="cls-12" width="68" height="1"/>
      <rect class="cls-13" x="0.5" y="0.5" width="67"/>
    </g>
    <g id="Rectangle_92" data-name="Rectangle 92" class="cls-2" transform="translate(620 502)">
      <rect class="cls-12" width="68" height="1"/>
      <rect class="cls-13" x="0.5" y="0.5" width="67"/>
    </g>
    <g id="Rectangle_93" data-name="Rectangle 93" class="cls-2" transform="translate(731 430)">
      <rect class="cls-12" width="79" height="33"/>
      <rect class="cls-13" x="0.5" y="0.5" width="78" height="32"/>
    </g>
    <line id="Line_47" data-name="Line 47" class="cls-11" x2="78" y2="32" transform="translate(731.5 430.5)"/>
    <line id="Line_48" data-name="Line 48" class="cls-11" y1="32" x2="78" transform="translate(731.5 430.5)"/>
    <g id="Rectangle_94" data-name="Rectangle 94" class="cls-2" transform="translate(731 474.3)">
      <rect class="cls-12" width="34.9" height="32.7"/>
      <rect class="cls-13" x="0.5" y="0.5" width="33.9" height="31.7"/>
    </g>
    <line id="Line_49" data-name="Line 49" class="cls-11" x2="34.458" y2="31.709" transform="translate(731.221 474.795)"/>
    <line id="Line_50" data-name="Line 50" class="cls-11" y1="31.709" x2="34.458" transform="translate(731.221 474.795)"/>
    <g id="Rectangle_95" data-name="Rectangle 95" class="cls-2" transform="translate(775 473.3)">
      <rect class="cls-12" width="34.5" height="67.7"/>
      <rect class="cls-13" x="0.5" y="0.5" width="33.5" height="66.7"/>
    </g>
    <line id="Line_51" data-name="Line 51" class="cls-11" x2="34.063" y2="65.648" transform="translate(775.218 474.326)"/>
    <line id="Line_52" data-name="Line 52" class="cls-11" y1="65.648" x2="34.063" transform="translate(775.218 474.326)"/>
    <g id="Rectangle_96" data-name="Rectangle 96" class="cls-2" transform="translate(732 535)">
      <rect class="cls-12" width="33.9" height="1.387"/>
      <rect class="cls-13" x="0.5" y="0.5" width="32.9" height="0.387"/>
    </g>
    <g id="Rectangle_97" data-name="Rectangle 97" class="cls-2" transform="translate(620 449)">
      <rect class="cls-12" width="68" height="1"/>
      <rect class="cls-13" x="0.5" y="0.5" width="67"/>
    </g>
    <g id="Rectangle_98" data-name="Rectangle 98" class="cls-2" transform="translate(620 456)">
      <rect class="cls-12" width="68" height="1"/>
      <rect class="cls-13" x="0.5" y="0.5" width="67"/>
    </g>
    <line id="Line_53" data-name="Line 53" class="cls-6" y1="19.562" x2="9.6" transform="translate(498.1 20.062) rotate(180)"/>
    <line id="Line_54" data-name="Line 54" class="cls-6" x1="9.6" y1="18.438" transform="translate(498.1 38.5) rotate(180)"/>
  </g>
</svg>
