<svg xmlns="http://www.w3.org/2000/svg" xmlns:xlink="http://www.w3.org/1999/xlink" viewBox="-436 -15 375 667">
  <defs>
    <style>
      .cls-1 {
        clip-path: url(#clip-Dashboard);
      }

      .cls-13, .cls-2, .cls-3 {
        fill: #fff;
      }

      .cls-2, .cls-7, .cls-9 {
        stroke: #95989a;
      }

      .cls-10, .cls-3, .cls-6 {
        stroke: #000;
      }

      .cls-4 {
        font-size: 16px;
      }

      .cls-4, .cls-5, .cls-8 {
        font-family: SegoeUI, Segoe UI;
      }

      .cls-5 {
        font-size: 18px;
      }

      .cls-12, .cls-6, .cls-7 {
        fill: none;
      }

      .cls-8 {
        font-size: 20px;
      }

      .cls-9 {
        fill: rgba(188,188,188,0.49);
      }

      .cls-10 {
        fill: #929292;
      }

      .cls-11 {
        stroke: none;
      }

      .cls-14 {
        filter: url(#Rectangle_52);
      }

      .cls-15 {
        filter: url(#Rectangle_48);
      }

      .cls-16 {
        filter: url(#Rectangle_56);
      }

      .cls-17 {
        filter: url(#Rectangle_55);
      }

      .cls-18 {
        filter: url(#Rectangle_58);
      }
    </style>
    <filter id="Rectangle_58" x="-445" y="573" width="393" height="84" filterUnits="userSpaceOnUse">
      <feOffset dy="-4" input="SourceAlpha"/>
      <feGaussianBlur stdDeviation="3" result="blur"/>
      <feFlood flood-opacity="0.161"/>
      <feComposite operator="in" in2="blur"/>
      <feComposite in="SourceGraphic"/>
    </filter>
    <filter id="Rectangle_55" x="-445" y="45" width="206" height="63" filterUnits="userSpaceOnUse">
      <feOffset dy="3" input="SourceAlpha"/>
      <feGaussianBlur stdDeviation="3" result="blur-2"/>
      <feFlood flood-opacity="0.161"/>
      <feComposite operator="in" in2="blur-2"/>
      <feComposite in="SourceGraphic"/>
    </filter>
    <filter id="Rectangle_56" x="-261" y="45" width="206" height="63" filterUnits="userSpaceOnUse">
      <feOffset dx="-4" dy="3" input="SourceAlpha"/>
      <feGaussianBlur stdDeviation="3" result="blur-3"/>
      <feFlood flood-opacity="0.161"/>
      <feComposite operator="in" in2="blur-3"/>
      <feComposite in="SourceGraphic"/>
    </filter>
    <filter id="Rectangle_48" x="-355" y="576" width="111.5" height="27" filterUnits="userSpaceOnUse">
      <feOffset dx="-4" input="SourceAlpha"/>
      <feGaussianBlur stdDeviation="3" result="blur-4"/>
      <feFlood flood-opacity="0.161"/>
      <feComposite operator="in" in2="blur-4"/>
      <feComposite in="SourceGraphic"/>
    </filter>
    <filter id="Rectangle_52" x="-355" y="585" width="111.5" height="76" filterUnits="userSpaceOnUse">
      <feOffset dx="-4" input="SourceAlpha"/>
      <feGaussianBlur stdDeviation="3" result="blur-5"/>
      <feFlood flood-opacity="0.161"/>
      <feComposite operator="in" in2="blur-5"/>
      <feComposite in="SourceGraphic"/>
    </filter>
    <clipPath id="clip-Dashboard">
      <rect x="-436" y="-15" width="375" height="667"/>
    </clipPath>
  </defs>
  <g id="Dashboard" class="cls-1">
    <rect class="cls-13" x="-436" y="-15" width="375" height="667"/>
    <g id="Rectangle_102" data-name="Rectangle 102" class="cls-2" transform="translate(-436 -15)">
      <rect class="cls-11" width="375" height="667"/>
      <rect class="cls-12" x="0.5" y="0.5" width="374" height="666"/>
    </g>
    <g id="Group_25" data-name="Group 25" transform="translate(-436 -15)">
      <g id="Rectangle_37" data-name="Rectangle 37" class="cls-3" transform="translate(30.76 523.68)">
        <rect class="cls-11" width="313.72" height="104.88"/>
        <rect class="cls-12" x="0.5" y="0.5" width="312.72" height="103.88"/>
      </g>
      <text id="CHAT_APP_STUDY" data-name="CHAT APP STUDY" class="cls-4" transform="translate(172.08 553.84)"><tspan x="0" y="0">CHAT APP STUDY</tspan></text>
      <text id="_" data-name="$$" class="cls-5" transform="translate(278.8 619.4)"><tspan x="0" y="0">$$</tspan></text>
      <text id="_04_21_-_04_30" data-name="04/21 - 04/30" class="cls-4" transform="translate(187.08 562.76)"><tspan x="0" y="17">04/21 - 04/30</tspan></text>
      <g id="Rectangle_57" data-name="Rectangle 57" class="cls-3" transform="translate(31 524)">
        <rect class="cls-11" width="105" height="104"/>
        <rect class="cls-12" x="0.5" y="0.5" width="104" height="103"/>
      </g>
      <line id="Line_8" data-name="Line 8" class="cls-6" x2="208" transform="translate(135.5 596.5)"/>
      <line id="Line_10" data-name="Line 10" class="cls-7" y2="31" transform="translate(239.5 596.5)"/>
      <text id="_30_min" data-name="30 min" class="cls-5" transform="translate(161 618)"><tspan x="0" y="0">30 min</tspan></text>
      <line id="Line_11" data-name="Line 11" class="cls-6" x2="104" y2="103" transform="translate(31.5 524.5)"/>
      <line id="Line_12" data-name="Line 12" class="cls-6" y1="103" x2="104" transform="translate(31.5 524.5)"/>
    </g>
    <g class="cls-18" transform="matrix(1, 0, 0, 1, 0, 0)">
      <g id="Rectangle_58-2" data-name="Rectangle 58" class="cls-2" transform="translate(-436 586)">
        <rect class="cls-11" width="375" height="66"/>
        <rect class="cls-12" x="0.5" y="0.5" width="374" height="65"/>
      </g>
    </g>
    <line id="Line_3" data-name="Line 3" class="cls-7" x2="375" transform="translate(-435.5 50.78)"/>
    <text id="DASHBOARD-2" data-name="DASHBOARD" class="cls-8" transform="translate(-306 28)"><tspan x="0" y="0">DASHBOARD</tspan></text>
    <g class="cls-17" transform="matrix(1, 0, 0, 1, 0, 0)">
      <g id="Rectangle_55-2" data-name="Rectangle 55" class="cls-9" transform="translate(-436 51)">
        <rect class="cls-11" width="188" height="45"/>
        <rect class="cls-12" x="0.5" y="0.5" width="187" height="44"/>
      </g>
    </g>
    <g class="cls-16" transform="matrix(1, 0, 0, 1, 0, 0)">
      <g id="Rectangle_56-2" data-name="Rectangle 56" class="cls-2" transform="translate(-248 51)">
        <rect class="cls-11" width="188" height="45"/>
        <rect class="cls-12" x="0.5" y="0.5" width="187" height="44"/>
      </g>
    </g>
    <text id="SUGGESTED" class="cls-5" transform="translate(-390 81)"><tspan x="0" y="0">SUGGESTED</tspan></text>
    <text id="ALL_STUDIES" data-name="ALL STUDIES" class="cls-5" transform="translate(-202 81)"><tspan x="0" y="0">ALL STUDIES</tspan></text>
    <g id="Group_20" data-name="Group 20" transform="translate(-167 -232)">
      <g id="alarm" transform="translate(71 238)">
        <path id="Path_1" data-name="Path 1" d="M24.295,19.763a9.754,9.754,0,0,1-3.064-7.109V8.73a6.349,6.349,0,0,0-3.722-5.767,8.772,8.772,0,0,0-1.525-.531v-.25a2.182,2.182,0,0,0-4.364,0V2.47a8.64,8.64,0,0,0-1.373.5,6.6,6.6,0,0,0-3.864,5.76v3.927a9.682,9.682,0,0,1-2.926,7.109.436.436,0,0,0,.233.74l4.142.715c.771.133,1.482.242,2.158.332a4.314,4.314,0,0,0,7.782,0c.673-.089,1.38-.2,2.147-.331l4.141-.715a.436.436,0,0,0,.234-.739ZM12.493,2.182a1.309,1.309,0,0,1,2.618,0v.079a8.676,8.676,0,0,0-2.618.021Zm1.389,20.945a3.5,3.5,0,0,1-2.8-1.447,27.026,27.026,0,0,0,2.8.151,26.878,26.878,0,0,0,2.806-.152A3.5,3.5,0,0,1,13.882,23.127Zm5.89-2.77c-.837.144-1.6.262-2.33.354h0c-.319.041-.63.076-.934.106h-.01c-.278.028-.55.05-.819.07l-.153.01c-.233.015-.463.027-.693.036l-.141.006c-.543.018-1.078.018-1.621,0l-.145-.006q-.339-.013-.684-.036l-.163-.011c-.262-.019-.527-.041-.8-.068l-.028,0c-.3-.03-.61-.065-.928-.106h0c-.728-.092-1.5-.21-2.339-.355L4.638,19.78a10.5,10.5,0,0,0,2.618-7.126V8.73a5.713,5.713,0,0,1,3.356-4.971,7.8,7.8,0,0,1,1.526-.516h.014a7.933,7.933,0,0,1,3.308-.03c.006,0,.011,0,.017,0a7.892,7.892,0,0,1,1.669.545,5.539,5.539,0,0,1,3.212,4.971v3.927a10.618,10.618,0,0,0,2.755,7.126Z" transform="translate(-3.329)"/>
        <path id="Path_2" data-name="Path 2" d="M23.365,10.589a6.668,6.668,0,0,0-5.441,0,4.41,4.41,0,0,0-2.6,3.776.437.437,0,0,0,.434.439h0a.436.436,0,0,0,.436-.434,3.52,3.52,0,0,1,2.088-2.989,5.776,5.776,0,0,1,4.712,0,.436.436,0,1,0,.363-.793Z" transform="translate(-10.093 -5.642)"/>
      </g>
    </g>
    <g id="Group_22" data-name="Group 22" transform="translate(-436 -15)">
      <g id="Rectangle_37-2" data-name="Rectangle 37" class="cls-3" transform="translate(30.76 127.68)">
        <rect class="cls-11" width="313.72" height="104.88"/>
        <rect class="cls-12" x="0.5" y="0.5" width="312.72" height="103.88"/>
      </g>
      <text id="CHAT_APP_STUDY-2" data-name="CHAT APP STUDY" class="cls-4" transform="translate(172.08 157.84)"><tspan x="0" y="0">CHAT APP STUDY</tspan></text>
      <text id="_2" data-name="$$" class="cls-5" transform="translate(278.8 223.4)"><tspan x="0" y="0">$$</tspan></text>
      <text id="_04_21_-_04_30-2" data-name="04/21 - 04/30" class="cls-4" transform="translate(187.08 166.76)"><tspan x="0" y="17">04/21 - 04/30</tspan></text>
      <g id="Rectangle_57-2" data-name="Rectangle 57" class="cls-3" transform="translate(31 128)">
        <rect class="cls-11" width="105" height="104"/>
        <rect class="cls-12" x="0.5" y="0.5" width="104" height="103"/>
      </g>
      <line id="Line_8-2" data-name="Line 8" class="cls-6" x2="208" transform="translate(135.5 200.5)"/>
      <line id="Line_10-2" data-name="Line 10" class="cls-7" y2="31" transform="translate(239.5 200.5)"/>
      <text id="_30_min-2" data-name="30 min" class="cls-5" transform="translate(161 222)"><tspan x="0" y="0">30 min</tspan></text>
      <line id="Line_11-2" data-name="Line 11" class="cls-6" x2="104" y2="103" transform="translate(31.5 128.5)"/>
      <line id="Line_12-2" data-name="Line 12" class="cls-6" y1="103" x2="104" transform="translate(31.5 128.5)"/>
    </g>
    <g id="Group_23" data-name="Group 23" transform="translate(-436 -15)">
      <g id="Rectangle_37-3" data-name="Rectangle 37" class="cls-3" transform="translate(30.76 259.68)">
        <rect class="cls-11" width="313.72" height="104.88"/>
        <rect class="cls-12" x="0.5" y="0.5" width="312.72" height="103.88"/>
      </g>
      <text id="CHAT_APP_STUDY-3" data-name="CHAT APP STUDY" class="cls-4" transform="translate(172.08 289.84)"><tspan x="0" y="0">CHAT APP STUDY</tspan></text>
      <text id="_3" data-name="$$" class="cls-5" transform="translate(278.8 355.4)"><tspan x="0" y="0">$$</tspan></text>
      <text id="_04_21_-_04_30-3" data-name="04/21 - 04/30" class="cls-4" transform="translate(187.08 298.76)"><tspan x="0" y="17">04/21 - 04/30</tspan></text>
      <g id="Rectangle_57-3" data-name="Rectangle 57" class="cls-3" transform="translate(31 260)">
        <rect class="cls-11" width="105" height="104"/>
        <rect class="cls-12" x="0.5" y="0.5" width="104" height="103"/>
      </g>
      <line id="Line_8-3" data-name="Line 8" class="cls-6" x2="208" transform="translate(135.5 332.5)"/>
      <line id="Line_10-3" data-name="Line 10" class="cls-7" y2="31" transform="translate(239.5 332.5)"/>
      <text id="_30_min-3" data-name="30 min" class="cls-5" transform="translate(161 354)"><tspan x="0" y="0">30 min</tspan></text>
      <line id="Line_11-3" data-name="Line 11" class="cls-6" x2="104" y2="103" transform="translate(31.5 260.5)"/>
      <line id="Line_12-3" data-name="Line 12" class="cls-6" y1="103" x2="104" transform="translate(31.5 260.5)"/>
    </g>
    <g id="Group_24" data-name="Group 24" transform="translate(-436 -15)">
      <g id="Rectangle_37-4" data-name="Rectangle 37" class="cls-3" transform="translate(30.76 391.68)">
        <rect class="cls-11" width="313.72" height="104.88"/>
        <rect class="cls-12" x="0.5" y="0.5" width="312.72" height="103.88"/>
      </g>
      <text id="CHAT_APP_STUDY-4" data-name="CHAT APP STUDY" class="cls-4" transform="translate(172.08 421.84)"><tspan x="0" y="0">CHAT APP STUDY</tspan></text>
      <text id="_4" data-name="$$" class="cls-5" transform="translate(278.8 487.4)"><tspan x="0" y="0">$$</tspan></text>
      <text id="_04_21_-_04_30-4" data-name="04/21 - 04/30" class="cls-4" transform="translate(187.08 430.76)"><tspan x="0" y="17">04/21 - 04/30</tspan></text>
      <g id="Rectangle_57-4" data-name="Rectangle 57" class="cls-3" transform="translate(31 392)">
        <rect class="cls-11" width="105" height="104"/>
        <rect class="cls-12" x="0.5" y="0.5" width="104" height="103"/>
      </g>
      <line id="Line_8-4" data-name="Line 8" class="cls-6" x2="208" transform="translate(135.5 464.5)"/>
      <line id="Line_10-4" data-name="Line 10" class="cls-7" y2="31" transform="translate(239.5 464.5)"/>
      <text id="_30_min-4" data-name="30 min" class="cls-5" transform="translate(161 486)"><tspan x="0" y="0">30 min</tspan></text>
      <line id="Line_11-4" data-name="Line 11" class="cls-6" x2="104" y2="103" transform="translate(31.5 392.5)"/>
      <line id="Line_12-4" data-name="Line 12" class="cls-6" y1="103" x2="104" transform="translate(31.5 392.5)"/>
    </g>
    <g id="Group_26" data-name="Group 26" transform="translate(-58 -96)">
      <g id="Rectangle_46" data-name="Rectangle 46" class="cls-2" transform="translate(-132 668)">
        <rect class="cls-11" width="1" height="1"/>
        <rect class="cls-12" x="0.5" y="0.5"/>
      </g>
      <g id="Rectangle_47" data-name="Rectangle 47" class="cls-10" transform="translate(-378 681)">
        <rect class="cls-11" width="93.5" height="9"/>
        <rect class="cls-12" x="0.5" y="0.5" width="92.5" height="8"/>
      </g>
      <g class="cls-15" transform="matrix(1, 0, 0, 1, 58, 96)">
        <g id="Rectangle_48-2" data-name="Rectangle 48" class="cls-3" transform="translate(-342 585)">
          <rect class="cls-11" width="93.5" height="9"/>
          <rect class="cls-12" x="0.5" y="0.5" width="92.5" height="8"/>
        </g>
      </g>
      <g id="Rectangle_49" data-name="Rectangle 49" class="cls-3" transform="translate(-190 681)">
        <rect class="cls-11" width="93.5" height="9"/>
        <rect class="cls-12" x="0.5" y="0.5" width="92.5" height="8"/>
      </g>
      <g id="Rectangle_50" data-name="Rectangle 50" class="cls-3" transform="translate(-96 681)">
        <rect class="cls-11" width="93.5" height="9"/>
        <rect class="cls-12" x="0.5" y="0.5" width="92.5" height="8"/>
      </g>
      <g id="Rectangle_51" data-name="Rectangle 51" class="cls-3" transform="translate(-378 690)">
        <rect class="cls-11" width="93.5" height="58"/>
        <rect class="cls-12" x="0.5" y="0.5" width="92.5" height="57"/>
      </g>
      <g class="cls-14" transform="matrix(1, 0, 0, 1, 58, 96)">
        <g id="Rectangle_52-2" data-name="Rectangle 52" class="cls-3" transform="translate(-342 594)">
          <rect class="cls-11" width="93.5" height="58"/>
          <rect class="cls-12" x="0.5" y="0.5" width="92.5" height="57"/>
        </g>
      </g>
      <g id="Rectangle_53" data-name="Rectangle 53" class="cls-3" transform="translate(-190 690)">
        <rect class="cls-11" width="93.5" height="58"/>
        <rect class="cls-12" x="0.5" y="0.5" width="92.5" height="57"/>
      </g>
      <g id="Rectangle_54" data-name="Rectangle 54" class="cls-3" transform="translate(-96 690)">
        <rect class="cls-11" width="93.5" height="58"/>
        <rect class="cls-12" x="0.5" y="0.5" width="92.5" height="57"/>
      </g>
      <g id="user-black-close-up-shape" transform="translate(-122.455 696)">
        <path id="Path_14" data-name="Path 14" d="M78.888,19.227a10.442,10.442,0,1,0-11.265,0A13.387,13.387,0,0,0,55.455,32.541V43.38l.027.169.747.233a60.88,60.88,0,0,0,18.179,2.932c9.826,0,15.522-2.8,15.875-2.981l.7-.354h.073V32.541A13.386,13.386,0,0,0,78.888,19.227Z" transform="translate(0 0)"/>
      </g>
      <g id="clock" transform="translate(-354 696)">
        <path id="Path_3" data-name="Path 3" d="M23.25,0A23.25,23.25,0,1,0,46.5,23.25,23.276,23.276,0,0,0,23.25,0Zm0,44.95a21.7,21.7,0,1,1,21.7-21.7A21.725,21.725,0,0,1,23.25,44.95Z"/>
        <path id="Path_4" data-name="Path 4" d="M28.075,23.514v-7.86a.775.775,0,0,0-1.55,0v7.86a3.1,3.1,0,0,0-2.215,2.215H18.775a.775.775,0,0,0,0,1.55H24.31a3.093,3.093,0,1,0,3.765-3.765Zm-.775,4.54a1.55,1.55,0,1,1,1.55-1.55A1.552,1.552,0,0,1,27.3,28.054Z" transform="translate(-4.05 -3.348)"/>
        <path id="Path_5" data-name="Path 5" d="M29.775,9.2a.775.775,0,0,0,.775-.775V7.654a.775.775,0,0,0-1.55,0v.775A.775.775,0,0,0,29.775,9.2Z" transform="translate(-6.525 -1.548)"/>
        <path id="Path_6" data-name="Path 6" d="M29.775,49.879a.775.775,0,0,0-.775.775v.775a.775.775,0,0,0,1.55,0v-.775A.775.775,0,0,0,29.775,49.879Z" transform="translate(-6.525 -11.223)"/>
        <path id="Path_7" data-name="Path 7" d="M51.55,28.879h-.775a.775.775,0,0,0,0,1.55h.775a.775.775,0,0,0,0-1.55Z" transform="translate(-11.25 -6.498)"/>
        <path id="Path_8" data-name="Path 8" d="M8.55,28.879H7.775a.775.775,0,0,0,0,1.55H8.55a.775.775,0,0,0,0-1.55Z" transform="translate(-1.575 -6.498)"/>
        <path id="Path_9" data-name="Path 9" d="M44.624,13.549l-.548.548a.775.775,0,1,0,1.1,1.1l.548-.548a.775.775,0,0,0-1.1-1.1Z" transform="translate(-9.866 -2.997)"/>
        <path id="Path_10" data-name="Path 10" d="M14.219,43.955l-.548.548a.775.775,0,1,0,1.1,1.1l.548-.548a.775.775,0,0,0-1.1-1.1Z" transform="translate(-3.025 -9.839)"/>
        <path id="Path_11" data-name="Path 11" d="M45.172,43.955a.775.775,0,0,0-1.1,1.1l.548.548a.775.775,0,0,0,1.1-1.1Z" transform="translate(-9.866 -9.839)"/>
        <path id="Path_12" data-name="Path 12" d="M14.767,13.549a.775.775,0,0,0-1.1,1.1l.548.548a.775.775,0,1,0,1.1-1.1Z" transform="translate(-3.025 -2.997)"/>
      </g>
      <g id="multiple-users-silhouette" transform="translate(-264 689.652)">
        <path id="Path_13" data-name="Path 13" d="M32.587,14.148a9.812,9.812,0,0,1,4.566,7.29,7.916,7.916,0,1,0-4.566-7.29ZM27.4,30.363a7.919,7.919,0,1,0-7.921-7.919A7.92,7.92,0,0,0,27.4,30.363Zm3.359.54h-6.72A10.152,10.152,0,0,0,13.9,41.044v8.218l.021.129.566.177a46.158,46.158,0,0,0,13.787,2.223c7.453,0,11.772-2.125,12.039-2.26l.529-.268H40.9v-8.22A10.149,10.149,0,0,0,30.758,30.9Zm13.1-8.176H37.192a9.76,9.76,0,0,1-3.012,6.8,12.049,12.049,0,0,1,8.606,11.531v2.533a27.288,27.288,0,0,0,10.628-2.233l.529-.268H54V32.867A10.151,10.151,0,0,0,43.86,22.727ZM13.5,22.188a7.867,7.867,0,0,0,4.212-1.222A9.8,9.8,0,0,1,21.4,14.715c.008-.148.022-.3.022-.445A7.919,7.919,0,1,0,13.5,22.188Zm7.112,7.337a9.766,9.766,0,0,1-3.01-6.761c-.247-.018-.492-.038-.744-.038H10.14A10.152,10.152,0,0,0,0,32.867v8.22l.021.127.566.179a47.543,47.543,0,0,0,11.419,2.146V41.056A12.052,12.052,0,0,1,20.614,29.526Z" transform="translate(0 0)"/>
      </g>
      <g id="clipboard-with-pencil-" transform="translate(-165.28 697)">
        <g id="Group_21" data-name="Group 21">
          <path id="Path_15" data-name="Path 15" d="M25.013,39.119a2.527,2.527,0,0,1-1.389.975l-2.79.762a2.5,2.5,0,0,1-3.165-2.192l-.245-2.881a2.468,2.468,0,0,1,.437-1.659l.1-.148H8.012a1.465,1.465,0,0,1,0-2.929H20.058L22.75,27.2H8.012a1.465,1.465,0,0,1,0-2.93l16.811-.043,6.3-9.039V8.5a1.954,1.954,0,0,0-1.948-1.988H24.353v3.819a3.244,3.244,0,0,1-3.274,3.229H11.373a3.2,3.2,0,0,1-3.227-3.229V6.509H3.268A1.987,1.987,0,0,0,1.28,8.5V42.65a2.029,2.029,0,0,0,1.988,2.037H29.177a2,2,0,0,0,1.949-2.037V30.438ZM8.012,17.5H24.436a1.465,1.465,0,0,1,0,2.929H8.012a1.465,1.465,0,0,1,0-2.929Z"/>
          <path id="Path_16" data-name="Path 16" d="M11.4,11.636h9.7A1.332,1.332,0,0,0,22.428,10.3V4.727A1.332,1.332,0,0,0,21.1,3.4H19.636a3.413,3.413,0,0,0-6.826,0H11.4a1.331,1.331,0,0,0-1.331,1.332V10.3A1.332,1.332,0,0,0,11.4,11.636Zm4.824-9.745a1.521,1.521,0,0,1,1.521,1.5H14.7A1.524,1.524,0,0,1,16.224,1.891Z"/>
          <path id="Path_17" data-name="Path 17" d="M43.394,8.978A.948.948,0,0,0,43,8.369L40.574,6.677a.94.94,0,0,0-1.311.233l-17.2,24.663,3.973,2.771,17.2-24.662A.95.95,0,0,0,43.394,8.978Z"/>
          <path id="Path_18" data-name="Path 18" d="M19.355,35.6l.249,2.9a.556.556,0,0,0,.236.412.573.573,0,0,0,.321.1.528.528,0,0,0,.147-.021l2.805-.768a.57.57,0,0,0,.313-.22l1.053-1.51L20.5,33.721l-1.053,1.51A.548.548,0,0,0,19.355,35.6Z"/>
        </g>
      </g>
    </g>
  </g>
</svg>
