<svg xmlns="http://www.w3.org/2000/svg" xmlns:xlink="http://www.w3.org/1999/xlink" viewBox="17 -778 375 667">
  <defs>
    <style>
      .cls-1 {
        clip-path: url(#clip-Notifications);
      }

      .cls-12, .cls-2 {
        fill: #fff;
      }

      .cls-2 {
        stroke: #95989a;
      }

      .cls-3 {
        stroke: rgba(0,0,0,0);
      }

      .cls-4 {
        font-size: 12px;
      }

      .cls-4, .cls-6, .cls-9 {
        font-family: SegoeUI, Segoe UI;
      }

      .cls-5 {
        font-size: 110px;
        font-family: Helvetica_Light-Normal, Helvetica Normal;
        letter-spacing: 0.002em;
      }

      .cls-6 {
        font-size: 28px;
        letter-spacing: 0.024em;
      }

      .cls-11, .cls-7, .cls-8 {
        fill: none;
      }

      .cls-7 {
        stroke: rgba(149,152,154,0.62);
      }

      .cls-8 {
        stroke: rgba(149,152,154,0.61);
      }

      .cls-9 {
        fill: #95989a;
        font-size: 18px;
      }

      .cls-10 {
        stroke: none;
      }

      .cls-13 {
        filter: url(#Line_70);
      }

      .cls-14 {
        filter: url(#Line_68);
      }

      .cls-15 {
        filter: url(#Line_67);
      }
    </style>
    <filter id="Line_67" x="24.5" y="-528" width="354" height="13" filterUnits="userSpaceOnUse">
      <feOffset dy="-3" input="SourceAlpha"/>
      <feGaussianBlur stdDeviation="2" result="blur"/>
      <feFlood flood-color="#605c5c" flood-opacity="0.451"/>
      <feComposite operator="in" in2="blur"/>
      <feComposite in="SourceGraphic"/>
    </filter>
    <filter id="Line_68" x="24.5" y="-447" width="354" height="13" filterUnits="userSpaceOnUse">
      <feOffset dy="-3" input="SourceAlpha"/>
      <feGaussianBlur stdDeviation="2" result="blur-2"/>
      <feFlood flood-color="#605c5c" flood-opacity="0.451"/>
      <feComposite operator="in" in2="blur-2"/>
      <feComposite in="SourceGraphic"/>
    </filter>
    <filter id="Line_70" x="27.5" y="-366" width="354" height="13" filterUnits="userSpaceOnUse">
      <feOffset dy="-3" input="SourceAlpha"/>
      <feGaussianBlur stdDeviation="2" result="blur-3"/>
      <feFlood flood-color="#605c5c" flood-opacity="0.451"/>
      <feComposite operator="in" in2="blur-3"/>
      <feComposite in="SourceGraphic"/>
    </filter>
    <clipPath id="clip-Notifications">
      <rect x="17" y="-778" width="375" height="667"/>
    </clipPath>
  </defs>
  <g id="Notifications" class="cls-1">
    <rect class="cls-12" x="17" y="-778" width="375" height="667"/>
    <g id="Rectangle_106" data-name="Rectangle 106" class="cls-2" transform="translate(17 -778)">
      <rect class="cls-10" width="375" height="667"/>
      <rect class="cls-11" x="0.5" y="0.5" width="374" height="666"/>
    </g>
    <g id="status_bar" data-name="status bar" transform="translate(-1347 -770)">
      <g id="battery">
        <path id="path" class="cls-3" d="M1.5,1.026h0a1.026,1.026,0,0,0-1,1.053V8.921a1.029,1.029,0,0,0,1,1.053H21a1.026,1.026,0,0,0,1-1.053V2.079a1.029,1.029,0,0,0-1-1.053ZM1.5.5H21a1.543,1.543,0,0,1,1.5,1.579V8.921A1.54,1.54,0,0,1,21,10.5H1.5A1.543,1.543,0,0,1,0,8.921V2.079A1.54,1.54,0,0,1,1.5.5Z" transform="translate(1706.5 -1)"/>
        <rect id="rectangle" class="cls-3" width="9" height="8" rx="1" transform="translate(1707.5 0.5)"/>
        <path id="path-2" data-name="path" class="cls-3" d="M24.5,5.732A1.75,1.75,0,0,1,23,7.465V4A1.75,1.75,0,0,1,24.5,5.732Z" transform="translate(1706.5 -1)"/>
      </g>
      <text id="battery_percent" data-name="battery percent" class="cls-4" transform="translate(1678.5 8.5)"><tspan x="0" y="0">42%</tspan></text>
      <path id="bluetooth" d="M306.428,14.369V10.811l1.712,1.864-1.712,1.694Zm1.791-7.022-1.791,1.8V5.735l1.791,1.611Zm-1.36,2.664,2.657-2.664L305.551,3.5h-.094V8.85l-2.691-2.821-.766.8,3.238,3.182L302,13.192l.766.8,2.691-2.821v5.349h.171l3.925-3.856-2.7-2.654Z" transform="translate(1363.5 -5)"/>
      <text id="time" class="cls-4" transform="translate(1527.5 9.5)"><tspan x="0" y="0">9:41 AM</tspan></text>
      <path id="wifi" class="cls-3" d="M90.5,7.021a7.716,7.716,0,0,1,5.063,1.886L96.5,7.868a8.8,8.8,0,0,0-12-.007L85.439,8.9A7.714,7.714,0,0,1,90.5,7.021Zm0,3a4.688,4.688,0,0,1,3.044,1.117l1-1.1a6.075,6.075,0,0,0-8.074,0l.994,1.1A4.686,4.686,0,0,1,90.5,10.02Zm2.048,2.217a3.084,3.084,0,0,0-4.094,0L90.5,14.5l2.048-2.263Z" transform="translate(1367 -6)"/>
      <text id="carrier" class="cls-4" transform="translate(1408.5 8.5)"><tspan x="0" y="0">Carrier</tspan></text>
      <g id="signal_strength" data-name="signal strength">
        <circle id="black_circle" data-name="black circle" class="cls-3" cx="2.75" cy="2.75" r="2.75" transform="translate(1371.5 2.5)"/>
        <circle id="black_circle-2" data-name="black circle" class="cls-3" cx="2.75" cy="2.75" r="2.75" transform="translate(1378.5 2.5)"/>
        <circle id="black_circle-3" data-name="black circle" class="cls-3" cx="2.75" cy="2.75" r="2.75" transform="translate(1385.5 2.5)"/>
        <path id="white_circle" data-name="white circle" class="cls-3" d="M23.75,5h0A2.25,2.25,0,1,0,21.5,2.75,2.25,2.25,0,0,0,23.75,5Zm0,.5h0A2.75,2.75,0,1,1,26.5,2.75,2.75,2.75,0,0,1,23.75,5.5Z" transform="translate(1371.5 2.5)"/>
        <path id="white_circle-2" data-name="white circle" class="cls-3" d="M30.75,5h0A2.25,2.25,0,1,0,28.5,2.75,2.25,2.25,0,0,0,30.75,5Zm0,.5h0A2.75,2.75,0,1,1,33.5,2.75,2.75,2.75,0,0,1,30.75,5.5Z" transform="translate(1371.5 2.5)"/>
      </g>
    </g>
    <text id="_1:10" data-name="1:10" class="cls-5" transform="translate(119 -594)"><tspan x="0" y="0">1:10</tspan></text>
    <text id="Sunday_May_7" data-name="Sunday, May 7" class="cls-6" transform="translate(111 -552)"><tspan x="0" y="0">Sunday, May 7</tspan></text>
    <g class="cls-15" transform="matrix(1, 0, 0, 1, 0, 0)">
      <line id="Line_67-2" data-name="Line 67" class="cls-7" x2="342" transform="translate(30.5 -518.5)"/>
    </g>
    <g class="cls-14" transform="matrix(1, 0, 0, 1, 0, 0)">
      <line id="Line_68-2" data-name="Line 68" class="cls-8" x2="342" transform="translate(30.5 -437.5)"/>
    </g>
    <text id="Indago" class="cls-9" transform="translate(47 -483)"><tspan x="0" y="0">Indago</tspan></text>
    <text id="_John_requested_you_participation" data-name="@John requested you participation" class="cls-9" transform="translate(47 -460)"><tspan x="0" y="0">@John requested you participation</tspan></text>
    <g class="cls-13" transform="matrix(1, 0, 0, 1, 0, 0)">
      <line id="Line_70-2" data-name="Line 70" class="cls-8" x2="342" transform="translate(33.5 -356.5)"/>
    </g>
    <text id="Indago-2" data-name="Indago" class="cls-9" transform="translate(47 -402)"><tspan x="0" y="0">Indago</tspan></text>
    <text id="_Sara_wants_to_participate_in_Brush_Off" data-name="@Sara wants to participate in Brush Off" class="cls-9" transform="translate(47 -379)"><tspan x="0" y="0">@Sara wants to participate in Brush Off</tspan></text>
  </g>
</svg>
