<?xml version="1.0" encoding="utf-8"?>
<!-- Generator: Adobe Illustrator 21.1.0, SVG Export Plug-In . SVG Version: 6.00 Build 0)  -->
<svg version="1.1" id="Layer_1" xmlns="http://www.w3.org/2000/svg" xmlns:xlink="http://www.w3.org/1999/xlink" x="0px" y="0px"
	 viewBox="0 0 900 650" style="enable-background:new 0 0 900 650;" xml:space="preserve">
<style type="text/css">
	.st0{fill:#4B0082;stroke:#FFFFFF;stroke-width:0.4304;stroke-miterlimit:10;}
	.st1{display:none;}
	.st2{display:inline;}
	.st3{fill:none;stroke:#000000;stroke-miterlimit:10;}
	.st4{display:none;fill:none;stroke:#FFFFFF;stroke-width:0.5;stroke-miterlimit:10;}
	.st5{fill:none;}
	.st6{fill:#FFFFFF;}
	.st7{font-family:'RockoFLF';}
	.st8{font-size:262.264px;}
	.st9{fill:#FFFFFF;stroke:#FFFFFF;stroke-width:10.0871;stroke-miterlimit:10;}
</style>
<path class="st0" d="M918.7,672H-49.7c-5.7,0-10.3-4.6-10.3-10.3V-11.7c0-5.7,4.6-10.3,10.3-10.3h968.3c5.7,0,10.3,4.6,10.3,10.3
	v673.3C929,667.4,924.4,672,918.7,672z"/>
<g id="XMLID_1_" class="st1">
	<g class="st2">
		<circle cx="416" cy="309" r="6.5"/>
	</g>
	<g class="st2">
		<circle class="st3" cx="416" cy="309" r="6.5"/>
	</g>
</g>
<path class="st4" d="M409.5,308.5c0-1.7,3.1-3,7-3"/>
<path class="st4" d="M422.5,308.5c0-1.7-2.7-3-6-3"/>
<path class="st4" d="M409.5,308.5c0,1.7,3.1,3,7,3"/>
<path class="st4" d="M422.5,308.5c0,1.7-2.7,3-6,3"/>
<circle class="st4" cx="418" cy="309" r="2.5"/>
<rect x="42.3" y="178.8" class="st5" width="897.8" height="246.3"/>
<text transform="matrix(1 0 0 1 42.2461 385.7666)" class="st6 st7 st8">Indago</text>
<path class="st9" d="M652.7,564.1L652.7,564.1c9.9,4.9,22.1,0.8,27-9.2l62.5-126.6c4.9-9.9,0.8-22.1-9.2-27l0,0
	c-9.9-4.9-22.1-0.8-27,9.2l-62.5,126.6C638.6,547,642.7,559.2,652.7,564.1z"/>
<g>
	<path class="st6" d="M802.8,288c2.1,6.2,2.8,12.7,2.9,19.1c0,6.4-0.8,12.9-2.4,19.2c-1.7,6.3-4.2,12.5-8.2,18.1
		c-2,2.7-4.4,5.3-7.5,7.2c-1.5,1-3.2,1.7-4.9,2.1c-1.7,0.4-3.6,0.3-5.1-0.2c3.1-1.2,5.1-3.2,6.7-5.5c1.6-2.3,2.8-4.9,3.9-7.5
		c2.2-5.3,3.8-11,5.3-16.7c1.5-5.7,2.9-11.6,4.3-17.6c0.7-3,1.4-6,2.2-9C800.9,294.2,801.7,291.1,802.8,288z"/>
</g>
</svg>
