<svg xmlns="http://www.w3.org/2000/svg" xmlns:xlink="http://www.w3.org/1999/xlink" viewBox="17 -21 375 667">
  <defs>
    <style>
      .cls-1 {
        clip-path: url(#clip-User_Search);
      }

      .cls-10, .cls-16, .cls-2, .cls-5 {
        fill: #fff;
      }

      .cls-2 {
        stroke: #95989a;
      }

      .cls-3, .cls-9 {
        font-size: 20px;
      }

      .cls-11, .cls-3, .cls-4, .cls-8, .cls-9 {
        font-family: SegoeUI, Segoe UI;
      }

      .cls-4 {
        font-size: 18px;
      }

      .cls-10, .cls-13, .cls-5, .cls-6, .cls-7 {
        stroke: #000;
      }

      .cls-5, .cls-6 {
        stroke-width: 2px;
      }

      .cls-15, .cls-6, .cls-7 {
        fill: none;
      }

      .cls-8 {
        font-size: 17px;
      }

      .cls-9 {
        fill: #060606;
      }

      .cls-11 {
        font-size: 10px;
      }

      .cls-12 {
        font-size: 9px;
        font-family: SegoeUI-Bold, Segoe UI;
        font-weight: 700;
      }

      .cls-13 {
        fill: #929292;
      }

      .cls-14 {
        stroke: none;
      }

      .cls-17 {
        filter: url(#Rectangle_51);
      }

      .cls-18 {
        filter: url(#Path_19);
      }

      .cls-19 {
        filter: url(#Rectangle_53);
      }

      .cls-20 {
        filter: url(#Rectangle_49);
      }

      .cls-21 {
        filter: url(#Rectangle_59);
      }
    </style>
    <filter id="Rectangle_59" x="8" y="567" width="393" height="84" filterUnits="userSpaceOnUse">
      <feOffset dy="-4" input="SourceAlpha"/>
      <feGaussianBlur stdDeviation="3" result="blur"/>
      <feFlood flood-opacity="0.161"/>
      <feComposite operator="in" in2="blur"/>
      <feComposite in="SourceGraphic"/>
    </filter>
    <filter id="Rectangle_49" x="192" y="570" width="111.5" height="27" filterUnits="userSpaceOnUse">
      <feOffset dx="-4" input="SourceAlpha"/>
      <feGaussianBlur stdDeviation="3" result="blur-2"/>
      <feFlood flood-opacity="0.161"/>
      <feComposite operator="in" in2="blur-2"/>
      <feComposite in="SourceGraphic"/>
    </filter>
    <filter id="Rectangle_53" x="192" y="579" width="111.5" height="76" filterUnits="userSpaceOnUse">
      <feOffset dx="-4" input="SourceAlpha"/>
      <feGaussianBlur stdDeviation="3" result="blur-3"/>
      <feFlood flood-opacity="0.161"/>
      <feComposite operator="in" in2="blur-3"/>
      <feComposite in="SourceGraphic"/>
    </filter>
    <filter id="Path_19" x="12" y="570" width="111.5" height="27" filterUnits="userSpaceOnUse">
      <feOffset dx="4" input="SourceAlpha"/>
      <feGaussianBlur stdDeviation="3" result="blur-4"/>
      <feFlood flood-opacity="0.161"/>
      <feComposite operator="in" in2="blur-4"/>
      <feComposite in="SourceGraphic"/>
    </filter>
    <filter id="Rectangle_51" x="12" y="579" width="111.5" height="76" filterUnits="userSpaceOnUse">
      <feOffset dx="4" input="SourceAlpha"/>
      <feGaussianBlur stdDeviation="3" result="blur-5"/>
      <feFlood flood-opacity="0.161"/>
      <feComposite operator="in" in2="blur-5"/>
      <feComposite in="SourceGraphic"/>
    </filter>
    <clipPath id="clip-User_Search">
      <rect x="17" y="-21" width="375" height="667"/>
    </clipPath>
  </defs>
  <g id="User_Search" data-name="User Search" class="cls-1">
    <rect class="cls-16" x="17" y="-21" width="375" height="667"/>
    <g id="Rectangle_103" data-name="Rectangle 103" class="cls-2" transform="translate(17 -21)">
      <rect class="cls-14" width="375" height="667"/>
      <rect class="cls-15" x="0.5" y="0.5" width="374" height="666"/>
    </g>
    <g class="cls-21" transform="matrix(1, 0, 0, 1, 0, 0)">
      <g id="Rectangle_59-2" data-name="Rectangle 59" class="cls-2" transform="translate(17 580)">
        <rect class="cls-14" width="375" height="66"/>
        <rect class="cls-15" x="0.5" y="0.5" width="374" height="65"/>
      </g>
    </g>
    <text id="USER_SEARCH-2" data-name="USER SEARCH" class="cls-3" transform="translate(143 22)"><tspan x="0" y="0">USER SEARCH</tspan></text>
    <text id="UNDERGRAD" class="cls-4" transform="translate(63 81)"><tspan x="0" y="0">UNDERGRAD</tspan></text>
    <g id="Group_28" data-name="Group 28" transform="translate(286 -238)">
      <g id="alarm" transform="translate(71 238)">
        <path id="Path_1" data-name="Path 1" d="M24.295,19.763a9.754,9.754,0,0,1-3.064-7.109V8.73a6.349,6.349,0,0,0-3.722-5.767,8.772,8.772,0,0,0-1.525-.531v-.25a2.182,2.182,0,0,0-4.364,0V2.47a8.64,8.64,0,0,0-1.373.5,6.6,6.6,0,0,0-3.864,5.76v3.927a9.682,9.682,0,0,1-2.926,7.109.436.436,0,0,0,.233.74l4.142.715c.771.133,1.482.242,2.158.332a4.314,4.314,0,0,0,7.782,0c.673-.089,1.38-.2,2.147-.331l4.141-.715a.436.436,0,0,0,.234-.739ZM12.493,2.182a1.309,1.309,0,0,1,2.618,0v.079a8.676,8.676,0,0,0-2.618.021Zm1.389,20.945a3.5,3.5,0,0,1-2.8-1.447,27.026,27.026,0,0,0,2.8.151,26.878,26.878,0,0,0,2.806-.152A3.5,3.5,0,0,1,13.882,23.127Zm5.89-2.77c-.837.144-1.6.262-2.33.354h0c-.319.041-.63.076-.934.106h-.01c-.278.028-.55.05-.819.07l-.153.01c-.233.015-.463.027-.693.036l-.141.006c-.543.018-1.078.018-1.621,0l-.145-.006q-.339-.013-.684-.036l-.163-.011c-.262-.019-.527-.041-.8-.068l-.028,0c-.3-.03-.61-.065-.928-.106h0c-.728-.092-1.5-.21-2.339-.355L4.638,19.78a10.5,10.5,0,0,0,2.618-7.126V8.73a5.713,5.713,0,0,1,3.356-4.971,7.8,7.8,0,0,1,1.526-.516h.014a7.933,7.933,0,0,1,3.308-.03c.006,0,.011,0,.017,0a7.892,7.892,0,0,1,1.669.545,5.539,5.539,0,0,1,3.212,4.971v3.927a10.618,10.618,0,0,0,2.755,7.126Z" transform="translate(-3.329)"/>
        <path id="Path_2" data-name="Path 2" d="M23.365,10.589a6.668,6.668,0,0,0-5.441,0,4.41,4.41,0,0,0-2.6,3.776.437.437,0,0,0,.434.439h0a.436.436,0,0,0,.436-.434,3.52,3.52,0,0,1,2.088-2.989,5.776,5.776,0,0,1,4.712,0,.436.436,0,1,0,.363-.793Z" transform="translate(-10.093 -5.642)"/>
      </g>
    </g>
    <g id="Rectangle_46" data-name="Rectangle 46" class="cls-2" transform="translate(265 463)">
      <rect class="cls-14" width="1" height="1"/>
      <rect class="cls-15" x="0.5" y="0.5"/>
    </g>
    <g id="Ellipse_1" data-name="Ellipse 1" class="cls-5" transform="translate(341 62)">
      <circle class="cls-14" cx="8" cy="8" r="8"/>
      <circle class="cls-15" cx="8" cy="8" r="7"/>
    </g>
    <line id="Line_13" data-name="Line 13" class="cls-6" x2="5" y2="10" transform="translate(352.5 76.5)"/>
    <line id="Line_14" data-name="Line 14" class="cls-7" x2="375" transform="translate(17.5 51.5)"/>
    <line id="Line_15" data-name="Line 15" class="cls-7" x1="375" transform="translate(17.5 95.5)"/>
    <text id="Computer_Science" data-name="Computer Science" class="cls-8" transform="translate(72.69 126.734)"><tspan x="0" y="0">Computer Science</tspan></text>
    <g id="Group_30" data-name="Group 30" transform="translate(59 105)">
      <line id="Line_16" data-name="Line 16" class="cls-7" y2="31.113" transform="translate(0 0)"/>
      <line id="Line_18" data-name="Line 18" class="cls-7" x2="149.586" transform="translate(0 0)"/>
      <line id="Line_19" data-name="Line 19" class="cls-7" x2="149.343" transform="translate(0 31.113)"/>
      <line id="Line_20" data-name="Line 20" class="cls-7" x2="17.423" y2="16.179" transform="translate(149.343 0)"/>
      <line id="Line_21" data-name="Line 21" class="cls-7" y1="14.934" x2="17.423" transform="translate(149.343 16.179)"/>
    </g>
    <g id="Group_34" data-name="Group 34" transform="translate(59 150.515)">
      <line id="Line_19-2" data-name="Line 19" class="cls-7" x2="73.78" transform="translate(0 31.113)"/>
      <g id="Group_31" data-name="Group 31">
        <line id="Line_16-2" data-name="Line 16" class="cls-7" y2="31.113"/>
        <line id="Line_18-2" data-name="Line 18" class="cls-7" x2="73.9"/>
        <line id="Line_20-2" data-name="Line 20" class="cls-7" x2="8.608" y2="16.179" transform="translate(73.78)"/>
        <line id="Line_21-2" data-name="Line 21" class="cls-7" y1="14.934" x2="8.608" transform="translate(73.78 16.179)"/>
      </g>
    </g>
    <text id="GCCIS" class="cls-8" transform="translate(76.423 172.248)"><tspan x="0" y="0">GCCIS</tspan></text>
    <g id="Group_36" data-name="Group 36" transform="translate(172.874 151.137)">
      <line id="Line_22" data-name="Line 22" class="cls-7" x2="73.78" transform="translate(0 31.113)"/>
      <g id="Group_32" data-name="Group 32">
        <line id="Line_16-3" data-name="Line 16" class="cls-7" y2="31.113"/>
        <line id="Line_18-3" data-name="Line 18" class="cls-7" x2="73.9"/>
        <line id="Line_20-3" data-name="Line 20" class="cls-7" x2="8.608" y2="16.179" transform="translate(73.78)"/>
        <line id="Line_21-3" data-name="Line 21" class="cls-7" y1="14.934" x2="8.608" transform="translate(73.78 16.179)"/>
      </g>
    </g>
    <text id="C_" data-name="C++" class="cls-8" transform="translate(192.164 173.493)"><tspan x="0" y="0">C++</tspan></text>
    <g id="Group_35" data-name="Group 35" transform="translate(255.012 105.622)">
      <line id="Line_23" data-name="Line 23" class="cls-7" x2="73.78" transform="translate(0 31.113)"/>
      <g id="Group_33" data-name="Group 33">
        <line id="Line_16-4" data-name="Line 16" class="cls-7" y2="31.113" transform="translate(0 0)"/>
        <line id="Line_18-4" data-name="Line 18" class="cls-7" x2="73.9" transform="translate(0 0)"/>
        <line id="Line_20-4" data-name="Line 20" class="cls-7" x2="8.608" y2="16.179" transform="translate(73.78 0)"/>
        <line id="Line_21-4" data-name="Line 21" class="cls-7" y1="14.934" x2="8.608" transform="translate(73.78 16.179)"/>
      </g>
    </g>
    <text id="_18_" data-name="18+" class="cls-8" transform="translate(276.792 127.978)"><tspan x="0" y="0">18+</tspan></text>
    <line id="Line_24" data-name="Line 24" class="cls-7" x2="375" transform="translate(17.5 190.5)"/>
    <g id="Group_41" data-name="Group 41" transform="translate(17 -10)">
      <line id="Line_25" data-name="Line 25" class="cls-7" x2="7" y2="8" transform="translate(343.5 180.5)"/>
      <line id="Line_26" data-name="Line 26" class="cls-7" y1="8" x2="6" transform="translate(350.5 180.5)"/>
    </g>
    <text id="Suggested_Participants" data-name="Suggested Participants" class="cls-9" transform="translate(41 229)"><tspan x="0" y="0">Suggested Participants</tspan></text>
    <g id="Rectangle_60" data-name="Rectangle 60" class="cls-10" transform="translate(42 253)">
      <rect class="cls-14" width="325" height="74"/>
      <rect class="cls-15" x="0.5" y="0.5" width="324" height="73"/>
    </g>
    <text id="Chris_Jackson_RIT" data-name="Chris Jackson, RIT" class="cls-3" transform="translate(82 282)"><tspan x="0" y="0">Chris Jackson, RIT</tspan></text>
    <g id="Group_39" data-name="Group 39" transform="translate(20 -20)">
      <text id="Computer_Science-2" data-name="Computer Science" class="cls-11" transform="translate(65.194 327.507)"><tspan x="0" y="0">Computer Science</tspan></text>
      <g id="Group_37" data-name="Group 37" transform="translate(56 314)">
        <line id="Line_16-5" data-name="Line 16" class="cls-7" y2="20.896" transform="translate(0 0)"/>
        <line id="Line_18-5" data-name="Line 18" class="cls-7" x2="100.462" transform="translate(0 0)"/>
        <line id="Line_19-3" data-name="Line 19" class="cls-7" x2="100.299" transform="translate(0 20.896)"/>
        <line id="Line_20-5" data-name="Line 20" class="cls-7" x2="11.701" y2="10.866" transform="translate(100.299 0)"/>
        <line id="Line_21-5" data-name="Line 21" class="cls-7" y1="10.03" x2="11.701" transform="translate(100.299 10.866)"/>
      </g>
    </g>
    <g id="Group_40" data-name="Group 40" transform="translate(21 -15)">
      <g id="Group_38" data-name="Group 38" transform="translate(178 309)">
        <line id="Line_22-2" data-name="Line 22" class="cls-7" x2="48.358" transform="translate(0 20.934)"/>
        <g id="Group_32-2" data-name="Group 32">
          <line id="Line_16-6" data-name="Line 16" class="cls-7" y2="20.934"/>
          <line id="Line_18-6" data-name="Line 18" class="cls-7" x2="48.437"/>
          <line id="Line_20-6" data-name="Line 20" class="cls-7" x2="5.642" y2="10.885" transform="translate(48.358)"/>
          <line id="Line_21-6" data-name="Line 21" class="cls-7" y1="10.048" x2="5.642" transform="translate(48.358 10.885)"/>
        </g>
      </g>
      <text id="C_2" data-name="C++" class="cls-12" transform="translate(190.643 322.396)"><tspan x="0" y="0">C++</tspan></text>
    </g>
    <line id="Line_25-2" data-name="Line 25" class="cls-7" y1="19.562" x2="9.6" transform="translate(341.5 289.938)"/>
    <line id="Line_26-2" data-name="Line 26" class="cls-7" x1="9.6" y1="18.438" transform="translate(341.5 271.5)"/>
    <g id="Rectangle_61" data-name="Rectangle 61" class="cls-10" transform="translate(42 352)">
      <rect class="cls-14" width="325" height="74"/>
      <rect class="cls-15" x="0.5" y="0.5" width="324" height="73"/>
    </g>
    <text id="John_Mathew_RIT" data-name="John Mathew, RIT" class="cls-3" transform="translate(82 381)"><tspan x="0" y="0">John Mathew, RIT</tspan></text>
    <g id="Group_43" data-name="Group 43" transform="translate(-18 83.719)">
      <g id="Group_38-2" data-name="Group 38" transform="translate(178 309)">
        <line id="Line_22-3" data-name="Line 22" class="cls-7" x2="49.007" transform="translate(0 21.214)"/>
        <g id="Group_32-3" data-name="Group 32">
          <line id="Line_16-7" data-name="Line 16" class="cls-7" y2="21.214"/>
          <line id="Line_18-7" data-name="Line 18" class="cls-7" x2="49.086"/>
          <line id="Line_20-7" data-name="Line 20" class="cls-7" x2="5.717" y2="11.031" transform="translate(49.007)"/>
          <line id="Line_21-7" data-name="Line 21" class="cls-7" y1="10.183" x2="5.717" transform="translate(49.007 11.031)"/>
        </g>
      </g>
      <text id="C_3" data-name="C++" class="cls-12" transform="translate(190.813 322.441)"><tspan x="0" y="0">C++</tspan></text>
    </g>
    <line id="Line_27" data-name="Line 27" class="cls-7" y1="19.562" x2="9.6" transform="translate(341.5 388.938)"/>
    <line id="Line_28" data-name="Line 28" class="cls-7" x1="9.6" y1="18.438" transform="translate(341.5 370.5)"/>
    <g id="Rectangle_62" data-name="Rectangle 62" class="cls-10" transform="translate(42 451)">
      <rect class="cls-14" width="325" height="74"/>
      <rect class="cls-15" x="0.5" y="0.5" width="324" height="73"/>
    </g>
    <text id="Rita_Johnson_RIT" data-name="Rita Johnson, RIT" class="cls-3" transform="translate(82 478)"><tspan x="0" y="0">Rita Johnson, RIT</tspan></text>
    <g id="Group_45" data-name="Group 45" transform="translate(-89 183)">
      <g id="Group_38-3" data-name="Group 38" transform="translate(178 309)">
        <line id="Line_22-4" data-name="Line 22" class="cls-7" x2="48.358" transform="translate(0 20.934)"/>
        <g id="Group_32-4" data-name="Group 32">
          <line id="Line_16-8" data-name="Line 16" class="cls-7" y2="20.934"/>
          <line id="Line_18-8" data-name="Line 18" class="cls-7" x2="48.437"/>
          <line id="Line_20-8" data-name="Line 20" class="cls-7" x2="5.642" y2="10.885" transform="translate(48.358)"/>
          <line id="Line_21-8" data-name="Line 21" class="cls-7" y1="10.048" x2="5.642" transform="translate(48.358 10.885)"/>
        </g>
      </g>
      <text id="C_4" data-name="C++" class="cls-12" transform="translate(190.643 322.396)"><tspan x="0" y="0">C++</tspan></text>
    </g>
    <line id="Line_29" data-name="Line 29" class="cls-7" y1="19.562" x2="9.6" transform="translate(341.5 487.938)"/>
    <line id="Line_30" data-name="Line 30" class="cls-7" x1="9.6" y1="18.438" transform="translate(341.5 469.5)"/>
    <g id="Group_46" data-name="Group 46" transform="translate(85 392.719)">
      <line id="Line_19-4" data-name="Line 19" class="cls-7" x2="49.581" transform="translate(0 20.908)"/>
      <g id="Group_31-2" data-name="Group 31">
        <line id="Line_16-9" data-name="Line 16" class="cls-7" y2="20.908"/>
        <line id="Line_18-9" data-name="Line 18" class="cls-7" x2="49.662"/>
        <line id="Line_20-9" data-name="Line 20" class="cls-7" x2="5.784" y2="10.872" transform="translate(49.581)"/>
        <line id="Line_21-9" data-name="Line 21" class="cls-7" y1="10.036" x2="5.784" transform="translate(49.581 10.872)"/>
      </g>
    </g>
    <text id="GCCIS-2" data-name="GCCIS" class="cls-11" transform="translate(96.709 406.228)"><tspan x="0" y="0">GCCIS</tspan></text>
    <g id="Group_48" data-name="Group 48" transform="translate(17 -21)">
      <g id="Group_47" data-name="Group 47" transform="translate(217.012 413.719)">
        <line id="Line_23-2" data-name="Line 23" class="cls-7" x2="49.836" transform="translate(0 21.016)"/>
        <g id="Group_33-2" data-name="Group 33" transform="translate(0 0)">
          <line id="Line_16-10" data-name="Line 16" class="cls-7" y2="21.016"/>
          <line id="Line_18-10" data-name="Line 18" class="cls-7" x2="49.917"/>
          <line id="Line_20-10" data-name="Line 20" class="cls-7" x2="5.814" y2="10.928" transform="translate(49.836)"/>
          <line id="Line_21-10" data-name="Line 21" class="cls-7" y1="10.088" x2="5.814" transform="translate(49.836 10.928)"/>
        </g>
      </g>
      <text id="_18_2" data-name="18+" class="cls-11" transform="translate(231.724 427.661)"><tspan x="0" y="0">18+</tspan></text>
    </g>
    <g id="Group_49" data-name="Group 49" transform="translate(-63 78)">
      <g id="Group_47-2" data-name="Group 47" transform="translate(217.012 413.719)">
        <line id="Line_23-3" data-name="Line 23" class="cls-7" x2="49.836" transform="translate(0 21.016)"/>
        <g id="Group_33-3" data-name="Group 33" transform="translate(0 0)">
          <line id="Line_16-11" data-name="Line 16" class="cls-7" y2="21.016"/>
          <line id="Line_18-11" data-name="Line 18" class="cls-7" x2="49.917"/>
          <line id="Line_20-11" data-name="Line 20" class="cls-7" x2="5.814" y2="10.928" transform="translate(49.836)"/>
          <line id="Line_21-11" data-name="Line 21" class="cls-7" y1="10.088" x2="5.814" transform="translate(49.836 10.928)"/>
        </g>
      </g>
      <text id="_18_3" data-name="18+" class="cls-11" transform="translate(231.724 427.661)"><tspan x="0" y="0">18+</tspan></text>
    </g>
    <g id="Rectangle_47" data-name="Rectangle 47" class="cls-13" transform="translate(111 579)">
      <rect class="cls-14" width="93.5" height="9"/>
      <rect class="cls-15" x="0.5" y="0.5" width="92.5" height="8"/>
    </g>
    <g class="cls-20" transform="matrix(1, 0, 0, 1, 0, 0)">
      <g id="Rectangle_49-2" data-name="Rectangle 49" class="cls-10" transform="translate(205 579)">
        <rect class="cls-14" width="93.5" height="9"/>
        <rect class="cls-15" x="0.5" y="0.5" width="92.5" height="8"/>
      </g>
    </g>
    <g id="Rectangle_50" data-name="Rectangle 50" class="cls-10" transform="translate(299 579)">
      <rect class="cls-14" width="93.5" height="9"/>
      <rect class="cls-15" x="0.5" y="0.5" width="92.5" height="8"/>
    </g>
    <g id="Rectangle_52" data-name="Rectangle 52" class="cls-10" transform="translate(111 588)">
      <rect class="cls-14" width="93.5" height="58"/>
      <rect class="cls-15" x="0.5" y="0.5" width="92.5" height="57"/>
    </g>
    <g class="cls-19" transform="matrix(1, 0, 0, 1, 0, 0)">
      <g id="Rectangle_53-2" data-name="Rectangle 53" class="cls-10" transform="translate(205 588)">
        <rect class="cls-14" width="93.5" height="58"/>
        <rect class="cls-15" x="0.5" y="0.5" width="92.5" height="57"/>
      </g>
    </g>
    <g id="Rectangle_54" data-name="Rectangle 54" class="cls-10" transform="translate(299 588)">
      <rect class="cls-14" width="93.5" height="58"/>
      <rect class="cls-15" x="0.5" y="0.5" width="92.5" height="57"/>
    </g>
    <path id="Path_14" data-name="Path 14" d="M78.888,19.227a10.442,10.442,0,1,0-11.265,0A13.387,13.387,0,0,0,55.455,32.541V43.38l.027.169.747.233a60.88,60.88,0,0,0,18.179,2.932c9.826,0,15.522-2.8,15.875-2.981l.7-.354h.073V32.541A13.386,13.386,0,0,0,78.888,19.227Z" transform="translate(272.545 594)"/>
    <path id="Path_13" data-name="Path 13" d="M32.587,14.148a9.812,9.812,0,0,1,4.566,7.29,7.916,7.916,0,1,0-4.566-7.29ZM27.4,30.363a7.919,7.919,0,1,0-7.921-7.919A7.92,7.92,0,0,0,27.4,30.363Zm3.359.54h-6.72A10.152,10.152,0,0,0,13.9,41.044v8.218l.021.129.566.177a46.158,46.158,0,0,0,13.787,2.223c7.453,0,11.772-2.125,12.039-2.26l.529-.268H40.9v-8.22A10.149,10.149,0,0,0,30.758,30.9Zm13.1-8.176H37.192a9.76,9.76,0,0,1-3.012,6.8,12.049,12.049,0,0,1,8.606,11.531v2.533a27.288,27.288,0,0,0,10.628-2.233l.529-.268H54V32.867A10.151,10.151,0,0,0,43.86,22.727ZM13.5,22.188a7.867,7.867,0,0,0,4.212-1.222A9.8,9.8,0,0,1,21.4,14.715c.008-.148.022-.3.022-.445A7.919,7.919,0,1,0,13.5,22.188Zm7.112,7.337a9.766,9.766,0,0,1-3.01-6.761c-.247-.018-.492-.038-.744-.038H10.14A10.152,10.152,0,0,0,0,32.867v8.22l.021.127.566.179a47.543,47.543,0,0,0,11.419,2.146V41.056A12.052,12.052,0,0,1,20.614,29.526Z" transform="translate(131 587.652)"/>
    <g id="Group_21" data-name="Group 21" transform="translate(232.72 595)">
      <path id="Path_15" data-name="Path 15" d="M25.013,39.119a2.527,2.527,0,0,1-1.389.975l-2.79.762a2.5,2.5,0,0,1-3.165-2.192l-.245-2.881a2.468,2.468,0,0,1,.437-1.659l.1-.148H8.012a1.465,1.465,0,0,1,0-2.929H20.058L22.75,27.2H8.012a1.465,1.465,0,0,1,0-2.93l16.811-.043,6.3-9.039V8.5a1.954,1.954,0,0,0-1.948-1.988H24.353v3.819a3.244,3.244,0,0,1-3.274,3.229H11.373a3.2,3.2,0,0,1-3.227-3.229V6.509H3.268A1.987,1.987,0,0,0,1.28,8.5V42.65a2.029,2.029,0,0,0,1.988,2.037H29.177a2,2,0,0,0,1.949-2.037V30.438ZM8.012,17.5H24.436a1.465,1.465,0,0,1,0,2.929H8.012a1.465,1.465,0,0,1,0-2.929Z"/>
      <path id="Path_16" data-name="Path 16" d="M11.4,11.636h9.7A1.332,1.332,0,0,0,22.428,10.3V4.727A1.332,1.332,0,0,0,21.1,3.4H19.636a3.413,3.413,0,0,0-6.826,0H11.4a1.331,1.331,0,0,0-1.331,1.332V10.3A1.332,1.332,0,0,0,11.4,11.636Zm4.824-9.745a1.521,1.521,0,0,1,1.521,1.5H14.7A1.524,1.524,0,0,1,16.224,1.891Z"/>
      <path id="Path_17" data-name="Path 17" d="M43.394,8.978A.948.948,0,0,0,43,8.369L40.574,6.677a.94.94,0,0,0-1.311.233l-17.2,24.663,3.973,2.771,17.2-24.662A.95.95,0,0,0,43.394,8.978Z"/>
      <path id="Path_18" data-name="Path 18" d="M19.355,35.6l.249,2.9a.556.556,0,0,0,.236.412.573.573,0,0,0,.321.1.528.528,0,0,0,.147-.021l2.805-.768a.57.57,0,0,0,.313-.22l1.053-1.51L20.5,33.721l-1.053,1.51A.548.548,0,0,0,19.355,35.6Z"/>
    </g>
    <g class="cls-18" transform="matrix(1, 0, 0, 1, 0, 0)">
      <path id="Path_19-2" data-name="Path 19" class="cls-10" d="M.5.5H93v8H.5Z" transform="translate(17 579)"/>
    </g>
    <g class="cls-17" transform="matrix(1, 0, 0, 1, 0, 0)">
      <g id="Rectangle_51-2" data-name="Rectangle 51" class="cls-10" transform="translate(17 588)">
        <rect class="cls-14" width="93.5" height="58"/>
        <rect class="cls-15" x="0.5" y="0.5" width="92.5" height="57"/>
      </g>
    </g>
    <g id="Group_29" data-name="Group 29" transform="translate(17 -22)">
      <path id="Path_3" data-name="Path 3" d="M23.25,0A23.25,23.25,0,1,0,46.5,23.25,23.276,23.276,0,0,0,23.25,0Zm0,44.95a21.7,21.7,0,1,1,21.7-21.7A21.725,21.725,0,0,1,23.25,44.95Z" transform="translate(24 615)"/>
      <path id="Path_4" data-name="Path 4" d="M28.075,23.514v-7.86a.775.775,0,0,0-1.55,0v7.86a3.1,3.1,0,0,0-2.215,2.215H18.775a.775.775,0,0,0,0,1.55H24.31a3.093,3.093,0,1,0,3.765-3.765Zm-.775,4.54a1.55,1.55,0,1,1,1.55-1.55A1.552,1.552,0,0,1,27.3,28.054Z" transform="translate(19.95 611.652)"/>
      <path id="Path_5" data-name="Path 5" d="M29.775,9.2a.775.775,0,0,0,.775-.775V7.654a.775.775,0,0,0-1.55,0v.775A.775.775,0,0,0,29.775,9.2Z" transform="translate(17.475 613.452)"/>
      <path id="Path_6" data-name="Path 6" d="M29.775,49.879a.775.775,0,0,0-.775.775v.775a.775.775,0,0,0,1.55,0v-.775A.775.775,0,0,0,29.775,49.879Z" transform="translate(17.475 604.777)"/>
      <path id="Path_7" data-name="Path 7" d="M51.55,28.879h-.775a.775.775,0,0,0,0,1.55h.775a.775.775,0,0,0,0-1.55Z" transform="translate(12.75 608.502)"/>
      <path id="Path_8" data-name="Path 8" d="M8.55,28.879H7.775a.775.775,0,0,0,0,1.55H8.55a.775.775,0,0,0,0-1.55Z" transform="translate(22.425 608.502)"/>
      <path id="Path_9" data-name="Path 9" d="M44.624,13.549l-.548.548a.775.775,0,1,0,1.1,1.1l.548-.548a.775.775,0,0,0-1.1-1.1Z" transform="translate(14.134 612.003)"/>
      <path id="Path_10" data-name="Path 10" d="M14.219,43.955l-.548.548a.775.775,0,1,0,1.1,1.1l.548-.548a.775.775,0,0,0-1.1-1.1Z" transform="translate(20.975 605.161)"/>
      <path id="Path_11" data-name="Path 11" d="M45.172,43.955a.775.775,0,0,0-1.1,1.1l.548.548a.775.775,0,0,0,1.1-1.1Z" transform="translate(14.134 605.161)"/>
      <path id="Path_12" data-name="Path 12" d="M14.767,13.549a.775.775,0,0,0-1.1,1.1l.548.548a.775.775,0,1,0,1.1-1.1Z" transform="translate(20.975 612.003)"/>
    </g>
  </g>
</svg>
