<?xml version="1.0" encoding="utf-8"?>
<!-- Generator: Adobe Illustrator 16.0.0, SVG Export Plug-In . SVG Version: 6.00 Build 0)  -->
<!DOCTYPE svg PUBLIC "-//W3C//DTD SVG 1.1//EN" "http://www.w3.org/Graphics/SVG/1.1/DTD/svg11.dtd">
<svg version="1.1" xmlns="http://www.w3.org/2000/svg" xmlns:xlink="http://www.w3.org/1999/xlink" x="0px" y="0px" width="864px"
	 height="576px" viewBox="0 0 864 576" enable-background="new 0 0 864 576" xml:space="preserve">
<g id="Layer_7" display="none">
	
		<polygon display="inline" opacity="0.3" fill="none" stroke="#4D4D4D" stroke-width="3" stroke-linecap="round" stroke-linejoin="round" stroke-miterlimit="10" points="
		601.998,358.342 414.938,466.342 414.938,250.348 601.998,142.348 	"/>
	
		<polygon display="inline" opacity="0.3" fill="none" stroke="#4D4D4D" stroke-width="3" stroke-linecap="round" stroke-linejoin="round" stroke-miterlimit="10" points="
		602,142.348 414.938,250.348 227.883,142.35 414.945,34.35 	"/>
	
		<polygon display="inline" opacity="0.3" fill="none" stroke="#4D4D4D" stroke-width="3" stroke-linecap="round" stroke-linejoin="round" stroke-miterlimit="10" points="
		414.938,466.338 227.877,358.338 227.877,142.348 414.938,250.348 	"/>
	
		<polygon display="inline" opacity="0.3" fill="none" stroke="#4D4D4D" stroke-width="3" stroke-linecap="round" stroke-linejoin="round" stroke-miterlimit="10" points="
		414.934,503.871 227.879,395.873 227.879,179.887 414.934,287.885 	"/>
	
		<polygon display="inline" opacity="0.3" fill="none" stroke="#4D4D4D" stroke-width="3" stroke-linecap="round" stroke-linejoin="round" stroke-miterlimit="10" points="
		448.297,503.871 261.242,395.873 261.242,179.887 448.297,287.885 	"/>
	
		<polygon display="inline" opacity="0.3" fill="none" stroke="#4D4D4D" stroke-width="3" stroke-linecap="round" stroke-linejoin="round" stroke-miterlimit="10" points="
		665.828,142.348 478.766,250.348 291.711,142.35 478.773,34.35 	"/>
	
		<polygon display="inline" opacity="0.3" fill="none" stroke="#4D4D4D" stroke-width="3" stroke-linecap="round" stroke-linejoin="round" stroke-miterlimit="10" points="
		601.998,395.877 414.938,503.877 414.938,287.883 601.998,179.883 	"/>
	
		<polygon display="inline" opacity="0.3" fill="none" stroke="#4D4D4D" stroke-width="3" stroke-linecap="round" stroke-linejoin="round" stroke-miterlimit="10" points="
		570.33,395.877 383.27,503.877 383.27,287.883 570.33,179.883 	"/>
</g>
<g id="Layer_5">
	<g id="XMLID_6_">
		<g>
			<polygon fill="#606060" points="411.939,257.335 411.939,294.895 258.25,206.155 258.25,422.125 224.89,402.865 224.89,149.335 
							"/>
		</g>
		<g>
			
				<line fill="none" stroke="#606060" stroke-width="3" stroke-linecap="round" stroke-linejoin="round" x1="224.89" y1="149.335" x2="411.939" y2="257.335"/>
			
				<line fill="none" stroke="#606060" stroke-width="3" stroke-linecap="round" stroke-linejoin="round" x1="224.89" y1="149.335" x2="224.89" y2="402.865"/>
			
				<line fill="none" stroke="#606060" stroke-width="3" stroke-linecap="round" stroke-linejoin="round" x1="258.25" y1="422.125" x2="258.25" y2="206.155"/>
			
				<line fill="none" stroke="#606060" stroke-width="3" stroke-linecap="round" stroke-linejoin="round" x1="411.939" y1="294.895" x2="258.25" y2="206.155"/>
			
				<line fill="none" stroke="#606060" stroke-width="3" stroke-linecap="round" stroke-linejoin="round" x1="258.25" y1="422.125" x2="224.89" y2="402.865"/>
			
				<line fill="none" stroke="#606060" stroke-width="3" stroke-linecap="round" stroke-linejoin="round" x1="411.939" y1="257.335" x2="411.939" y2="294.895"/>
		</g>
	</g>
</g>
<g id="Layer_3">
	<g id="XMLID_2_">
		<g>
			<polygon fill="#606060" points="447.25,52.395 292.75,142.335 447.25,232.305 415.99,250.335 228.939,142.335 415.99,34.335 			
				"/>
		</g>
		<g>
			
				<line fill="none" stroke="#606060" stroke-width="3" stroke-linecap="round" stroke-linejoin="round" x1="447.25" y1="232.305" x2="292.75" y2="142.335"/>
			
				<line fill="none" stroke="#606060" stroke-width="3" stroke-linecap="round" stroke-linejoin="round" x1="415.99" y1="34.335" x2="228.939" y2="142.335"/>
			
				<line fill="none" stroke="#606060" stroke-width="3" stroke-linecap="round" stroke-linejoin="round" x1="415.99" y1="34.335" x2="447.25" y2="52.395"/>
			
				<line fill="none" stroke="#606060" stroke-width="3" stroke-linecap="round" stroke-linejoin="round" x1="447.25" y1="52.395" x2="292.75" y2="142.335"/>
			
				<line fill="none" stroke="#606060" stroke-width="3" stroke-linecap="round" stroke-linejoin="round" x1="228.939" y1="142.335" x2="415.99" y2="250.335"/>
			
				<line fill="none" stroke="#606060" stroke-width="3" stroke-linecap="round" stroke-linejoin="round" x1="415.99" y1="250.335" x2="447.25" y2="232.305"/>
		</g>
	</g>
</g>
<g id="Layer_4">
	<g id="XMLID_3_">
		<g>
			<polygon fill="#606060" points="606.989,149.335 606.989,402.865 453.3,491.604 453.3,454.075 575.34,384.595 575.34,204.475 
				419.939,294.895 419.939,257.335 451.199,239.305 			"/>
		</g>
		<g>
			
				<line fill="none" stroke="#606060" stroke-width="3" stroke-linecap="round" stroke-linejoin="round" stroke-miterlimit="10" x1="606.989" y1="149.335" x2="606.989" y2="402.865"/>
			
				<line fill="none" stroke="#606060" stroke-width="3" stroke-linecap="round" stroke-linejoin="round" x1="419.939" y1="294.895" x2="575.34" y2="204.475"/>
			
				<line fill="none" stroke="#606060" stroke-width="3" stroke-linecap="round" stroke-linejoin="round" x1="575.34" y1="204.475" x2="575.34" y2="384.595"/>
			
				<line fill="none" stroke="#606060" stroke-width="3" stroke-linecap="round" stroke-linejoin="round" x1="451.199" y1="239.305" x2="606.989" y2="149.335"/>
			
				<line fill="none" stroke="#606060" stroke-width="3" stroke-linecap="round" stroke-linejoin="round" x1="606.989" y1="402.865" x2="453.3" y2="491.604"/>
			
				<line fill="none" stroke="#606060" stroke-width="3" stroke-linecap="round" stroke-linejoin="round" x1="453.3" y1="491.604" x2="453.3" y2="454.075"/>
			
				<line fill="none" stroke="#606060" stroke-width="3" stroke-linecap="round" stroke-linejoin="round" x1="453.3" y1="454.075" x2="575.34" y2="384.595"/>
			
				<line fill="none" stroke="#606060" stroke-width="3" stroke-linecap="round" stroke-linejoin="round" x1="419.939" y1="257.335" x2="419.939" y2="294.895"/>
			
				<line fill="none" stroke="#606060" stroke-width="3" stroke-linecap="round" stroke-linejoin="round" x1="419.939" y1="257.335" x2="451.199" y2="239.305"/>
		</g>
	</g>
</g>
<g id="Layer_6" display="none">
	
		<line display="inline" fill="none" stroke="#FFFFFF" stroke-width="3.75" stroke-linecap="round" x1="227.891" y1="142.334" x2="414.939" y2="250.334"/>
</g>
<g id="Layer_8" display="none">
	
		<line display="inline" fill="none" stroke="#FFFFFF" stroke-width="3.75" stroke-linecap="round" x1="446.199" y1="232.305" x2="601.99" y2="142.334"/>
	
		<line display="inline" fill="none" stroke="#FFFFFF" stroke-width="3.75" stroke-linecap="round" x1="414.939" y1="250.334" x2="414.939" y2="287.895"/>
	
		<line display="inline" fill="#940038" stroke="#FFFFFF" stroke-width="3.75" stroke-linecap="round" x1="414.939" y1="250.334" x2="446.199" y2="232.305"/>
</g>
<g id="Layer_2" display="none">
	
		<line display="inline" fill="none" stroke="#070403" stroke-width="6" stroke-linecap="round" stroke-linejoin="round" stroke-miterlimit="10" x1="602" y1="142.348" x2="601.998" y2="395.877"/>
	
		<line display="inline" fill="none" stroke="#000000" stroke-width="6" stroke-linecap="round" stroke-linejoin="round" x1="414.939" y1="287.895" x2="570.34" y2="197.475"/>
	
		<line display="inline" fill="none" stroke="#000000" stroke-width="6" stroke-linecap="round" stroke-linejoin="round" x1="570.34" y1="197.475" x2="570.34" y2="377.594"/>
	
		<line display="inline" fill="none" stroke="#000000" stroke-width="6" stroke-linecap="round" stroke-linejoin="round" x1="446.199" y1="232.305" x2="291.699" y2="142.334"/>
	
		<line display="inline" fill="none" stroke="#000000" stroke-width="6" stroke-linecap="round" stroke-linejoin="round" x1="414.939" y1="34.334" x2="227.891" y2="142.334"/>
	
		<line display="inline" fill="none" stroke="#000000" stroke-width="6" stroke-linecap="round" stroke-linejoin="round" x1="414.939" y1="34.334" x2="446.199" y2="52.395"/>
	
		<line display="inline" fill="none" stroke="#000000" stroke-width="6" stroke-linecap="round" stroke-linejoin="round" x1="446.199" y1="52.395" x2="291.699" y2="142.334"/>
	
		<line display="inline" fill="none" stroke="#000000" stroke-width="6" stroke-linecap="round" stroke-linejoin="round" x1="446.199" y1="232.305" x2="601.99" y2="142.334"/>
	
		<line display="inline" fill="none" stroke="#000000" stroke-width="6" stroke-linecap="round" stroke-linejoin="round" x1="601.99" y1="395.865" x2="448.299" y2="484.605"/>
	
		<line display="inline" fill="none" stroke="#000000" stroke-width="6" stroke-linecap="round" stroke-linejoin="round" x1="448.299" y1="484.605" x2="448.299" y2="447.074"/>
	
		<line display="inline" fill="none" stroke="#000000" stroke-width="6" stroke-linecap="round" stroke-linejoin="round" x1="448.299" y1="447.074" x2="570.34" y2="377.594"/>
	
		<line display="inline" fill="none" stroke="#000000" stroke-width="6" stroke-linecap="round" stroke-linejoin="round" x1="227.891" y1="142.334" x2="227.891" y2="395.865"/>
	
		<line display="inline" fill="none" stroke="#000000" stroke-width="6" stroke-linecap="round" stroke-linejoin="round" x1="261.25" y1="415.125" x2="261.25" y2="199.154"/>
	
		<line display="inline" fill="none" stroke="#000000" stroke-width="6" stroke-linecap="round" stroke-linejoin="round" x1="261.25" y1="415.125" x2="227.891" y2="395.865"/>
	
		<line display="inline" fill="none" stroke="#000000" stroke-width="6" stroke-linecap="round" stroke-linejoin="round" x1="414.939" y1="287.895" x2="261.25" y2="199.154"/>
	
		<line fill="none" stroke="#000000" stroke-width="2" stroke-linecap="round" stroke-linejoin="round" x1="277.04" y1="113.15" x2="339.39" y2="149.15"/>
	
		<line fill="none" stroke="#000000" stroke-width="2" stroke-linecap="round" stroke-linejoin="round" x1="339.39" y1="149.15" x2="339.39" y2="161.67"/>
	
		<line display="inline" fill="#940038" stroke="#000000" stroke-width="6" stroke-linecap="round" stroke-linejoin="round" x1="414.939" y1="250.334" x2="446.199" y2="232.305"/>
</g>
</svg>
